<svg xmlns="http://www.w3.org/2000/svg" width="33.023" height="32.057" viewBox="0 0 33.023 32.057"><defs><style>.a{fill:#3bdbf8;}</style></defs><path class="a" d="M227.544,211H210v3.757h17.544a1.879,1.879,0,1,0,0-3.757Zm0,0" transform="translate(-196.455 -197.789)"/><path class="a" d="M.967,3.757h11.61a.954.954,0,0,0,.967-.939V1.878A1.907,1.907,0,0,0,11.61,0H1.935A1.907,1.907,0,0,0,0,1.878v.939A.954.954,0,0,0,.967,3.757Zm0,0"/><path class="a" d="M30,90h9.675v11.333H30Zm0,0" transform="translate(-28.065 -84.365)"/><path class="a" d="M30.027,301a5.242,5.242,0,0,0,3.276,4.8,3.4,3.4,0,0,1,1.856,1.846,3.267,3.267,0,0,1-.032,2.581L33.974,312.9a.916.916,0,0,0,.081.887.977.977,0,0,0,.808.422H52.407a.953.953,0,0,0,.967-.939v-3.28a10.9,10.9,0,0,1-2.9.4A10.662,10.662,0,0,1,39.75,301Zm0,0" transform="translate(-28.091 -282.154)"/><path class="a" d="M220.254,308.513a8.6,8.6,0,0,0,8.61-7.513H211.516A8.728,8.728,0,0,0,220.254,308.513Zm0,0" transform="translate(-197.873 -282.154)"/></svg>