<svg xmlns="http://www.w3.org/2000/svg" width="30.216" height="20.863" viewBox="0 0 30.216 20.863"><defs><style>.a{fill:#07be0e;}</style></defs><g transform="translate(0 0)"><path class="a" d="M3.611,12.051a4.124,4.124,0,0,1,4.888-.7,4.122,4.122,0,0,1,5.99,4.54c.4-.009.787-.014,1.158-.014s.76,0,1.16.014a4.12,4.12,0,0,1,5.988-4.54,4.119,4.119,0,0,1,5.175,6.208,12.087,12.087,0,0,1,1.708.744V10.837h0c-.228-2.124-6.424-3.825-14.034-3.825S1.842,8.714,1.613,10.837h0V18.3a12.087,12.087,0,0,1,1.713-.748A4.128,4.128,0,0,1,3.611,12.051Z" transform="translate(-0.536 -7.012)"/><path class="a" d="M30.213,23.867c-.139-1.235-2.15-2.335-5.263-3.086l1.271-1.264a2.805,2.805,0,0,0-3.96-3.975,2.805,2.805,0,0,0-3.96,3.975l.361.358c-1.139-.077-2.327-.118-3.55-.118s-2.411.041-3.549.118l.36-.358a2.805,2.805,0,0,0-3.959-3.975A2.805,2.805,0,0,0,4,19.516L5.275,20.78C2.163,21.531.151,22.632.013,23.867H0V27.4a.859.859,0,0,0,.857.855h1.77v1.337a.861.861,0,0,0,.858.855H6.378a.864.864,0,0,0,.862-.855V28.252H23v1.337a.851.851,0,0,0,.848.855H26.74a.853.853,0,0,0,.85-.855V28.252h1.778a.852.852,0,0,0,.849-.855Z" transform="translate(0 -9.581)"/></g></svg>