<svg xmlns="http://www.w3.org/2000/svg" width="17.421" height="11.429" viewBox="0 0 17.421 11.429"><g transform="translate(0)"><path d="M15.969.5H1.452A1.453,1.453,0,0,0,0,1.952V6.017A1.453,1.453,0,0,0,1.452,7.468H15.969a1.453,1.453,0,0,0,1.452-1.452V1.952A1.453,1.453,0,0,0,15.969.5ZM2.032,1.081H15.388v.581H2.032ZM3.194,6.888H2.032V6.307H3.194Zm1.742,0H3.774V6.307H4.936Zm1.742,0H5.517V6.307H6.678Zm1.742,0H7.259V6.307H8.42Zm1.742,0H9V6.307h1.161Zm1.742,0H10.743V6.307H11.9Zm1.742,0H12.485V6.307h1.161Zm1.742,0H14.227V6.307h1.161Zm0-1.161H2.032V5.145H15.388Zm1.452.29a.871.871,0,0,1-.871.871V4.855a.29.29,0,0,0-.29-.29H1.742a.29.29,0,0,0-.29.29V6.888a.871.871,0,0,1-.871-.871V1.952a.871.871,0,0,1,.871-.871v.871a.29.29,0,0,0,.29.29H15.679a.29.29,0,0,0,.29-.29V1.081a.871.871,0,0,1,.871.871Zm0,0" transform="translate(0 -0.5)"/><path d="M416,80.5h.581v.581H416Zm0,0" transform="translate(-400.902 -77.597)"/><path d="M384,80.5h.581v.581H384Zm0,0" transform="translate(-370.064 -77.597)"/><path d="M216,80.5h1.742v.581H216Zm0,0" transform="translate(-208.161 -77.597)"/><path d="M256.864,213.79l-.541-.212-.208.532a1.478,1.478,0,0,0,.25,1.5.907.907,0,0,1,.166.926l-.208.531.541.212.208-.532a1.478,1.478,0,0,0-.25-1.5.907.907,0,0,1-.166-.926Zm0,0" transform="translate(-246.722 -205.845)"/><path d="M320.864,213.79l-.541-.212-.208.532a1.478,1.478,0,0,0,.25,1.5.907.907,0,0,1,.166.926l-.208.531.541.212.208-.532a1.478,1.478,0,0,0-.25-1.5.907.907,0,0,1-.166-.926Zm0,0" transform="translate(-308.4 -205.845)"/><path d="M192.864,213.79l-.541-.212-.208.532a1.478,1.478,0,0,0,.25,1.5.907.907,0,0,1,.166.926l-.208.531.541.212.208-.532a1.478,1.478,0,0,0-.25-1.5.907.907,0,0,1-.166-.926Zm0,0" transform="translate(-185.045 -205.845)"/><path d="M128.864,213.79l-.541-.212-.208.532a1.478,1.478,0,0,0,.25,1.5.907.907,0,0,1,.166.926l-.208.531.541.212.208-.532a1.478,1.478,0,0,0-.25-1.5.907.907,0,0,1-.166-.926Zm0,0" transform="translate(-123.368 -205.845)"/></g></svg>