<svg xmlns="http://www.w3.org/2000/svg" width="13.259" height="18.152" viewBox="0 0 13.259 18.152"><g transform="translate(0 0)"><path d="M256.567,460.871h-.012a.266.266,0,1,0,0,.531h.012a.266.266,0,1,0,0-.531Zm0,0" transform="translate(-247.22 -444.532)"/><path d="M286.746,460.871h-.012a.266.266,0,1,0,0,.531h.012a.266.266,0,1,0,0-.531Zm0,0" transform="translate(-276.33 -444.532)"/><path d="M38.721,32.586a5.672,5.672,0,0,0-.406-2.118.266.266,0,1,0-.493.2,5.155,5.155,0,1,1-.6-1.09.266.266,0,0,0,.431-.311,5.686,5.686,0,1,0,1.069,3.321Zm0,0" transform="translate(-26.415 -25.949)"/><path d="M67.241,67.958a1.369,1.369,0,0,0,.676.182,2.142,2.142,0,0,0,1.479-.753,4.03,4.03,0,0,0,.837-1.2c.032,0,.064,0,.1,0a1.475,1.475,0,0,0,.759-.21,3.476,3.476,0,0,1,.276.621,3.866,3.866,0,0,1,.121.545,1.314,1.314,0,0,0,.458.982.793.793,0,0,0,.425.111,1.749,1.749,0,0,0,.508-.089h0A3,3,0,0,0,74.7,65.7c-.012-.529-.3-1.23-1.59-1.566a4.05,4.05,0,0,0-1.461-.106,1.5,1.5,0,0,0-.489-.555,3.419,3.419,0,0,1,.446-.513,3.873,3.873,0,0,1,.442-.341c.321-.223.652-.454.7-.831a1.109,1.109,0,0,0-.374-.856h0a3,3,0,0,0-2.987-.623c-.474.234-.989.79-.747,2.105a4.044,4.044,0,0,0,.522,1.371,1.479,1.479,0,0,0-.316.915s0,0,0,0a3.466,3.466,0,0,1-.673-.079,3.838,3.838,0,0,1-.531-.174,1.309,1.309,0,0,0-1.077-.107,1.107,1.107,0,0,0-.495.793A3,3,0,0,0,67.241,67.958ZM71.814,64.7a1.511,1.511,0,0,0-.008-.153s0,0,0,0a3.519,3.519,0,0,1,1.174.1c.78.2,1.181.561,1.193,1.064a2.5,2.5,0,0,1-1.452,1.928.708.708,0,0,1-.5.033c-.118-.072-.164-.338-.212-.619a4.329,4.329,0,0,0-.14-.621,4.038,4.038,0,0,0-.373-.812v0A1.48,1.48,0,0,0,71.814,64.7Zm-.531,0a.954.954,0,1,1-.954-.954A.956.956,0,0,1,71.283,64.7ZM69.62,60.784a1.446,1.446,0,0,1,.637-.129,2.663,2.663,0,0,1,1.721.631c.166.184.252.341.241.44-.016.138-.237.292-.471.455a4.334,4.334,0,0,0-.5.39,3.963,3.963,0,0,0-.577.681H70.66a1.478,1.478,0,0,0-1.093.173h0a3.514,3.514,0,0,1-.4-1.108C69.015,61.523,69.169,61.007,69.62,60.784ZM66.585,65.26h0a.708.708,0,0,1,.226-.447.215.215,0,0,1,.1-.021,1.845,1.845,0,0,1,.539.154,4.317,4.317,0,0,0,.606.2,4.018,4.018,0,0,0,.887.092h0a1.494,1.494,0,0,0,.763.814h0a3.5,3.5,0,0,1-.687.959c-.572.568-1.083.731-1.52.485A2.5,2.5,0,0,1,66.585,65.26Zm0,0" transform="translate(-63.705 -57.993)"/><path d="M167.719,167.73a.732.732,0,0,0-.779.146.735.735,0,0,0,.346,1.251.734.734,0,0,0,.892-.717.714.714,0,0,0-.038-.233A.731.731,0,0,0,167.719,167.73Zm-.137.829a.2.2,0,0,1-.138.054.208.208,0,0,1-.045-.005.2.2,0,0,1-.153-.154.21.21,0,0,1,0-.044.2.2,0,0,1,.063-.148.2.2,0,0,1,.139-.055.193.193,0,0,1,.076.015.2.2,0,0,1,.117.124v0a.187.187,0,0,1,.009.061A.2.2,0,0,1,167.582,168.559Zm0,0" transform="translate(-160.818 -161.731)"/><path d="M11.234,15.058H9.625L9.087,12.98a6.629,6.629,0,1,0-3.916,0l-.538,2.078H3.024A1.125,1.125,0,0,0,1.9,16.182v.846a1.125,1.125,0,0,0,1.123,1.124h8.21a1.125,1.125,0,0,0,1.123-1.124v-.846A1.125,1.125,0,0,0,11.234,15.058ZM1.031,6.637a6.1,6.1,0,1,1,6.1,6.107A6.109,6.109,0,0,1,1.031,6.637Zm8.045,8.421H5.182l.5-1.941a6.635,6.635,0,0,0,2.889,0Zm2.75,1.97a.593.593,0,0,1-.591.593H3.024a.593.593,0,0,1-.591-.593v-.846a.593.593,0,0,1,.591-.593H5.4V16a.266.266,0,0,0,.531,0v-.408H6.74V16a.266.266,0,0,0,.531,0v-.408H8.08V16a.266.266,0,0,0,.531,0v-.408h2.623a.593.593,0,0,1,.591.593v.846Zm0,0" transform="translate(-0.5)"/></g></svg>