<svg xmlns="http://www.w3.org/2000/svg" width="347.105" height="150.261" viewBox="0 0 347.105 150.261"><defs><style>.a{opacity:0.048;}.b,.j,.l{fill:#42372d;}.b,.d,.g{opacity:0.35;}.c{fill:#2f747f;}.d{fill:#a39582;}.e{fill:#a8a29d;}.f{fill:#f2e5d6;}.g{fill:#bfb2a5;}.h{fill:#a09a95;}.i{fill:#fcf5f0;}.k{fill:#fff6ee;}.l,.m{opacity:0.51;}.m{fill:#fffefd;}.n{fill:#6e6e7f;}.o{fill:#565672;}.p{fill:#262816;}.q{fill:#bddbdb;opacity:0.18;}.r{fill:#51251a;}.s{fill:#2b110b;}.t{fill:#f4eadf;}.u{fill:#b7b1ab;}.v{fill:#93aa31;}.w{fill:#351007;}.x{fill:#0e4c14;}</style></defs><g class="a" transform="translate(-431.075 -542.257)"><path class="b" d="M701.647,604.146v88.363H612.669V604.146l28.682-36.638h31.613Z" transform="translate(-21.099 -2.934)"/><g transform="translate(501.329 542.257)"><path class="c" d="M725.7,582.61H510.565l36.877-40.353H686.658Z" transform="translate(-510.565 -542.257)"/><rect class="d" width="206.012" height="106.965" transform="translate(5.286 40.353)"/><rect class="e" width="208.643" height="18.163" transform="translate(5.284 129.155)"/><path class="f" d="M682.892,689.854h-88.98V601.492l44.49-56.831,44.49,56.831Z" transform="translate(-520.249 -542.536)"/><path class="g" d="M638.4,544.661l-44.49,56.831v7.417l44.49-51,44.49,52.317v-8.737Z" transform="translate(-520.249 -542.536)"/><rect class="h" width="88.98" height="3.353" transform="translate(73.663 95.925)"/><rect class="h" width="11.836" height="7.001" transform="translate(79.382 86.978)"/><rect class="i" width="90.542" height="1.821" transform="translate(72.882 96.746)"/><rect class="i" width="10.52" height="5.843" transform="translate(80.04 87.557)"/><rect class="h" width="8.816" height="4.337" transform="translate(80.893 88.31)"/><rect class="i" width="6.724" height="3.307" transform="translate(81.938 88.825)"/><rect class="h" width="11.836" height="7.001" transform="translate(99.644 86.978)"/><rect class="i" width="10.52" height="5.843" transform="translate(100.301 87.557)"/><rect class="h" width="8.816" height="4.337" transform="translate(101.154 88.31)"/><rect class="i" width="6.724" height="3.307" transform="translate(102.2 88.825)"/><rect class="h" width="11.836" height="7.001" transform="translate(118.153 86.978)"/><rect class="i" width="10.52" height="5.843" transform="translate(118.81 87.557)"/><rect class="h" width="8.816" height="4.337" transform="translate(119.662 88.31)"/><rect class="i" width="6.724" height="3.307" transform="translate(120.708 88.825)"/><rect class="h" width="11.836" height="7.001" transform="translate(138.219 86.978)"/><rect class="i" width="10.52" height="5.843" transform="translate(138.877 87.557)"/><rect class="h" width="8.816" height="4.337" transform="translate(139.729 88.31)"/><rect class="i" width="6.724" height="3.307" transform="translate(140.775 88.825)"/><path class="j" d="M692.116,608.721h-7.073L636.7,551.678l-50.029,57.043H579.8L636.7,543.037Z" transform="translate(-518.61 -542.347)"/><path class="k" d="M689.211,609.243H685.5L637.148,552.2l-50.029,57.043H583.7l53.449-61.707Z" transform="translate(-519.063 -542.87)"/><path class="l" d="M688.153,609.434H685.66l-48.347-57.043-50.029,57.043h-2.165l52.194-60.258Z" transform="translate(-519.228 -543.061)"/><path class="m" d="M687.681,609.519h-1.947l-48.347-57.043-50.029,57.043h-1.6l51.633-59.61Z" transform="translate(-519.302 -543.146)"/><path class="b" d="M577.751,636.16h-6.625l-.795-.684v59.4H516.546V587.915Z" transform="translate(-511.26 -547.562)"/><g transform="translate(22.101 81.766)"><path class="b" d="M583.941,677.237h-.229v-42.1H538.966v42.1h-.982c-1.332,0-2.412.807-2.412,1.8v1.12h50.78v-1.12C586.352,678.044,585.273,677.237,583.941,677.237Z" transform="translate(-535.572 -634.814)"/><rect class="n" width="41.864" height="42.175" transform="translate(4.016 0.552)"/><path class="o" d="M548.818,641.963h33.163V635.4H540.116v42.175h8.7Z" transform="translate(-536.1 -634.845)"/><path class="p" d="M582.182,676.016V634.772H538.857v41.213h-.427a2.859,2.859,0,0,0-2.858,2.859H584.74A2.848,2.848,0,0,0,582.182,676.016Zm-41.863-29.934h8.355v9.666h-8.355Zm0,10.548h8.355v9.96h-8.355Zm19.213,0v9.96h-9.689v-9.96Zm-9.689-.882v-9.666h9.689v9.666Zm21.82,0H560.7v-9.666h10.958Zm0,.882v9.96H560.7v-9.96Zm0,10.843v8.512H560.7v-8.512Zm1.168,8.512v-8.512h7.891v8.512Zm7.891-9.395h-7.891v-9.96h7.891Zm0-10.842h-7.891v-9.666h7.891ZM571.662,645.2H560.7v-9.325h10.958Zm-12.13,0h-9.689v-9.325h9.689Zm0,22.273v8.512h-9.689v-8.512ZM580.721,645.2h-7.891v-9.325h7.891Zm-32.048-9.325V645.2h-8.355v-9.325Zm-8.355,31.6h8.355v8.512h-8.355Z" transform="translate(-535.572 -634.772)"/><rect class="q" width="8.586" height="8.821" transform="translate(14.751 11.659)"/><rect class="q" width="9.395" height="8.987" transform="translate(25.789 22.134)"/><rect class="q" width="9.789" height="8.38" transform="translate(25.789 1.681)"/><rect class="q" width="9.789" height="8.214" transform="translate(25.789 11.659)"/><rect class="q" width="8.189" height="9.05" transform="translate(14.751 22.355)"/><rect class="q" width="7.817" height="6.946" transform="translate(15.123 33.546)"/></g><g transform="translate(163.887 82.323)"><path class="b" d="M739.468,677.825h-.207V635.4H699.048v42.423h-.883a2.01,2.01,0,0,0-2.167,1.8v1.12h45.637v-1.12A2.01,2.01,0,0,0,739.468,677.825Z" transform="translate(-695.998 -635.402)"/><rect class="n" width="34.568" height="42.175" transform="translate(3.317 0.552)"/><path class="o" d="M706.936,642.593h27.383v-6.566H699.751V678.2h7.185Z" transform="translate(-696.434 -635.475)"/><path class="p" d="M734.486,676.726V635.4H698.711V676.63A2.852,2.852,0,0,0,696,679.474h40.6A2.849,2.849,0,0,0,734.486,676.726Zm-18.7-19.466v9.96h-8v-9.96Zm-8-.882v-9.666h8v9.666Zm18.017,0H716.75v-9.666H725.8Zm0,.882v9.96H716.75v-9.96Zm0,10.842v8.513H716.75V668.1Zm.965,8.513V668.1h6.516v8.513Zm6.516-9.395h-6.516v-9.96h6.516Zm0-10.842h-6.516v-9.666h6.516ZM725.8,645.83H716.75v-9.325H725.8Zm-10.016,0h-8v-9.325h8Zm0,22.272v8.513h-8V668.1ZM699.918,657.26h6.9v9.96h-6.9Zm6.9-.882h-6.9v-9.666h6.9Zm-6.9,11.724h6.9v8.513h-6.9ZM733.28,645.83h-6.516v-9.325h6.516Zm-26.463-9.325v9.325h-6.9v-9.325Z" transform="translate(-695.998 -635.402)"/><rect class="q" width="7.09" height="8.821" transform="translate(12.18 11.659)"/><rect class="q" width="7.758" height="8.987" transform="translate(21.295 22.134)"/><rect class="q" width="8.084" height="8.38" transform="translate(21.295 1.681)"/><rect class="q" width="8.084" height="8.215" transform="translate(21.295 11.659)"/><rect class="q" width="6.762" height="9.05" transform="translate(12.18 22.355)"/><rect class="q" width="6.455" height="6.946" transform="translate(12.487 33.546)"/></g><g transform="translate(96.562 33.404)"><path class="b" d="M642.922,580.2c-15.211,0-23.1,20.771-23.1,36.227V625.1h46.2v-8.676C666.022,601.1,658.1,580.2,642.922,580.2Z" transform="translate(-619.822 -580.069)"/><path class="n" d="M620.65,620.951v-6.918c0-17.868,9.554-32.4,21.3-32.4s21.3,14.536,21.3,32.4v6.918Z" transform="translate(-619.918 -580.236)"/><path class="o" d="M641.947,581.629c-11.743,0-21.3,14.536-21.3,32.4v6.918h.192c1.383-15.849,10.318-28.121,21.105-28.121s19.723,12.272,21.106,28.121h.192v-6.918C663.245,596.165,653.69,581.629,641.947,581.629Z" transform="translate(-619.918 -580.236)"/><path class="p" d="M647.8,581.417c-16.542-6.923-27.981,13.818-27.981,32.281v8.028h44.057V613.7C663.879,601.294,658.784,586.093,647.8,581.417Zm6.721,13.893h3.957a40.35,40.35,0,0,1,3.44,11.536h-7.4Zm3.618-.685h-3.618V589.07A29.017,29.017,0,0,1,658.143,594.625Zm-4.241-6.264v6.264h-6.1V583.743A19.016,19.016,0,0,1,653.9,588.362Zm-25.436,6.949h5.125v11.536h-5.125Zm5.125,12.563v11.632h-5.125V607.874Zm7.014-1.027h-6.391V595.31h6.391Zm1.246-11.536h5.329v11.536h-5.329Zm-1.246,12.563v11.632h-6.391V607.874Zm1.246,0h5.329v11.632h-5.329ZM647.8,595.31h6.1v11.536h-6.1Zm6.1,12.563v11.632h-6.1V607.874Zm-6.721-13.248h-5.329V582.4a13.956,13.956,0,0,1,5.329,1.069Zm-6.576-12.158v12.158h-6.391v-9.983A14.8,14.8,0,0,1,640.606,582.467Zm-7.014,2.573v9.585h-5.125v-4.664A21.682,21.682,0,0,1,633.592,585.04Zm-5.748,5.766v3.819h-2.285A30,30,0,0,1,627.843,590.806Zm-2.623,4.5h2.623v11.536h-6.06A40.344,40.344,0,0,1,625.22,595.31ZM621.283,613.7a46.636,46.636,0,0,1,.361-5.825h6.2v11.632h-6.56Zm41.134,5.807h-7.892V607.874h7.534a46.8,46.8,0,0,1,.359,5.825Z" transform="translate(-619.822 -580.053)"/><rect class="q" width="3.92" height="10.812" transform="translate(9.16 15.562)"/><rect class="q" width="5.518" height="9.975" transform="translate(14.639 15.867)"/><rect class="q" width="5.518" height="9.607" transform="translate(14.639 28.735)"/><rect class="q" width="4.335" height="10.66" transform="translate(22.578 3.303)"/><rect class="q" width="4.335" height="10.927" transform="translate(22.578 16.019)"/><rect class="q" width="4.591" height="9.606" transform="translate(22.322 28.888)"/></g><g transform="translate(139.716 101.268)"><rect class="n" width="16.195" height="35.044" transform="translate(0.731 0.551)"/><path class="o" d="M675.224,660h10.448v-2.537h-16.2v35.044h5.747Z" transform="translate(-668.745 -656.911)"/><path class="p" d="M686.306,692.985V656.838H668.649v36.147Zm-1.461-25.715h-6.869v-9.329h6.869Zm-6.869.441h6.869v9.147h-6.869Zm-.584-9.77v9.329h-7.281v-9.329Zm0,18.917h-7.281v-9.147h7.281Zm-7.281,15.025V677.3h7.281v14.584Zm7.865,0V677.3h6.869v14.584Z" transform="translate(-668.649 -656.838)"/></g><g transform="translate(36.213 45.318)"><rect class="n" width="16.196" height="28.852" transform="translate(0.731 0.454)"/><path class="o" d="M558.114,596.135h10.447v-2.089h-16.2V622.9h5.748Z" transform="translate(-551.635 -593.592)"/><path class="p" d="M569.2,623.293V593.532H551.539v29.761Zm-1.462-21.172h-6.868v-7.68h6.868Zm-6.868.362h6.868v7.532h-6.868Zm-.584-8.043v7.68H553v-7.68Zm0,15.574H553v-7.532h7.282ZM553,622.385V610.378h7.282v12.006Zm7.866,0V610.378h6.868v12.006Z" transform="translate(-551.539 -593.532)"/></g><g transform="translate(180.233 45.318)"><rect class="n" width="16.195" height="28.852" transform="translate(0.73 0.454)"/><path class="o" d="M721.068,596.135h10.447v-2.089h-16.2V622.9h5.748Z" transform="translate(-714.589 -593.592)"/><path class="p" d="M714.493,593.532v29.761H732.15V593.532Zm16.2,8.589H723.82v-7.68h6.868Zm-6.868.362h6.868v7.532H723.82Zm-.584-8.043v7.68h-7.282v-7.68Zm0,15.574h-7.282v-7.532h7.282Zm-7.282,12.37V610.378h7.282v12.006Zm7.866,0V610.378h6.868v12.006Z" transform="translate(-714.493 -593.532)"/></g><g transform="translate(79.833 101.369)"><rect class="n" width="16.195" height="35.044" transform="translate(0.731 0.552)"/><path class="o" d="M607.469,660.112h10.448v-2.536h-16.2V692.62h5.747Z" transform="translate(-600.99 -657.025)"/><path class="p" d="M600.894,656.952V693.1h17.657V656.952Zm16.2,10.432h-6.869v-9.329h6.869Zm-6.869.441h6.869v9.147h-6.869Zm-.584-9.77v9.329h-7.281v-9.329Zm0,18.917h-7.281v-9.147h7.281ZM602.356,692V677.413h7.281V692Zm7.865,0V677.413h6.869V692Z" transform="translate(-600.894 -656.952)"/></g><path class="r" d="M15.986,0h.557A15.986,15.986,0,0,1,32.529,15.986v28.53a0,0,0,0,1,0,0H0a0,0,0,0,1,0,0V15.986A15.986,15.986,0,0,1,15.986,0Z" transform="translate(102.2 102.803)"/><path class="s" d="M644.043,660.065v43.2H660.8l-15.067-.619Z" transform="translate(-526.074 -555.945)"/><rect class="s" width="1.203" height="11.127" transform="translate(113.752 125.838)"/><rect class="s" width="1.203" height="11.127" transform="translate(122.177 125.838)"/></g><g transform="translate(433.379 585.538)"><g transform="translate(4.857 1.429)"><path class="t" d="M532.62,695.452H443.64V633.006l44.49-40.162,44.49,40.162Z" transform="translate(-439.696 -592.844)"/><g transform="translate(0 84.445)"><path class="u" d="M532.1,688.39v18.164H439.177V688.39Z" transform="translate(-439.177 -688.39)"/></g></g><path class="j" d="M538.885,636.087h-6.436l-45.476-38.98-46.862,38.98h-6.429l53.291-44.859Z" transform="translate(-433.682 -591.227)"/></g><g transform="translate(463.332 608.555)"><g transform="translate(0 32.269)"><path class="b" d="M520.216,696.206h-.249V653.782h-48.7v42.424H470.2c-1.449,0-2.625.806-2.625,1.8v1.12h55.268v-1.12C522.841,697.012,521.666,696.206,520.216,696.206Z" transform="translate(-467.573 -653.782)"/><rect class="n" width="41.865" height="42.176" transform="translate(4.016 0.552)"/><path class="o" d="M480.819,660.973h33.163v-6.566H472.118v42.176h8.7Z" transform="translate(-468.101 -653.854)"/><path class="p" d="M514.183,695.026V653.782H470.859V695h-.427a2.858,2.858,0,0,0-2.859,2.857h49.168A2.849,2.849,0,0,0,514.183,695.026ZM480.675,695H472.32v-8.513h8.355Zm0-9.4H472.32V675.64h8.355Zm0-10.842H472.32v-9.667h8.355Zm0-10.549H472.32v-9.325h8.355ZM491.533,695h-9.689v-8.513h9.689Zm0-9.4h-9.689V675.64h9.689Zm0-10.842h-9.689v-9.667h9.689Zm0-10.549h-9.689v-9.325h9.689ZM503.663,695H492.705v-8.513h10.958Zm0-9.4H492.705V675.64h10.958Zm0-10.842H492.705v-9.667h10.958Zm0-10.549H492.705v-9.325h10.958ZM512.723,695h-7.891v-8.513h7.891Zm0-9.4h-7.891V675.64h7.891Zm0-10.842h-7.891v-9.667h7.891Zm0-10.549h-7.891v-9.325h7.891Z" transform="translate(-467.573 -653.782)"/><rect class="q" width="8.587" height="8.821" transform="translate(14.751 11.66)"/><rect class="q" width="9.395" height="8.986" transform="translate(25.79 22.134)"/><rect class="q" width="9.79" height="8.38" transform="translate(25.79 1.681)"/><rect class="q" width="9.79" height="8.214" transform="translate(25.79 11.66)"/><rect class="q" width="8.189" height="9.051" transform="translate(14.751 22.354)"/><rect class="q" width="7.817" height="6.946" transform="translate(15.123 33.546)"/></g><g transform="translate(2.554)"><path class="b" d="M493.563,617.271c-12.5,0-23.1,7.638-23.1,17.487v4.187h46.2v-4.187C516.663,624.825,505.962,617.271,493.563,617.271Z" transform="translate(-470.463 -617.271)"/><path class="n" d="M471.291,636.944V633.6c0-8.625,9.553-15.642,21.3-15.642s21.3,7.017,21.3,15.642v3.34Z" transform="translate(-470.559 -617.351)"/><path class="o" d="M492.588,617.962c-11.744,0-21.3,7.017-21.3,15.642v3.34h.192c1.382-7.651,10.317-13.574,21.105-13.574s19.723,5.923,21.105,13.574h.192V633.6C513.885,624.979,504.331,617.962,492.588,617.962Z" transform="translate(-470.559 -617.351)"/><path class="p" d="M505.165,620.217q-.306-.163-.622-.311a26.171,26.171,0,0,0-6.1-2.037c-.207-.042-.414-.083-.622-.118a29.492,29.492,0,0,0-5.33-.479,29.173,29.173,0,0,0-7.636,1q-.314.082-.622.177a24.893,24.893,0,0,0-5.125,2.154c-.21.117-.418.239-.623.36-4.9,2.971-8.021,7.463-8.021,12.49v3.875h44.056V633.45C514.519,627.979,510.823,623.143,505.165,620.217Zm7.4,9.926h-7.4v-5.569h3.957A13.585,13.585,0,0,1,512.563,630.143Zm-3.779-5.9h-3.618v-2.681A18.844,18.844,0,0,1,508.783,624.243Zm-4.241-3.023v3.023h-6.1v-5.252A23.947,23.947,0,0,1,504.543,621.22Zm-25.435,3.354h5.125v5.569h-5.125Zm5.125,6.066v5.614h-5.125V630.64Zm.622-6.066h6.391v5.569h-6.391Zm6.391,6.066v5.614h-6.391V630.64Zm1.246-6.066h5.329v5.569h-5.329Zm0,6.066h5.329v5.614h-5.329Zm5.952-6.066h6.1v5.569h-6.1Zm6.1,6.066v5.614h-6.1V630.64Zm-6.721-6.4h-5.329v-5.9a27.519,27.519,0,0,1,5.329.516Zm-6.576-5.854v5.854h-6.391v-4.818A26.783,26.783,0,0,1,491.246,618.389Zm-7.013,1.228v4.626h-5.125v-2.252A22.539,22.539,0,0,1,484.233,619.618Zm-5.748,2.782v1.844H476.2A17.848,17.848,0,0,1,478.484,622.4Zm-2.624,2.174h2.624v5.569h-6.06A13.564,13.564,0,0,1,475.86,624.574Zm-3.936,8.876a11.128,11.128,0,0,1,.36-2.811h6.2v5.614h-6.561Zm41.135,2.8h-7.894V630.64H512.7a11.169,11.169,0,0,1,.36,2.811Z" transform="translate(-470.463 -617.271)"/><rect class="q" width="3.921" height="5.219" transform="translate(9.159 7.451)"/><rect class="q" width="5.518" height="4.814" transform="translate(14.639 7.597)"/><rect class="q" width="5.518" height="4.637" transform="translate(14.639 13.809)"/><rect class="q" width="4.335" height="5.145" transform="translate(22.578 1.533)"/><rect class="q" width="4.335" height="5.274" transform="translate(22.578 7.671)"/><rect class="q" width="4.59" height="4.637" transform="translate(22.322 13.882)"/></g></g><path class="v" d="M788.622,660.285c0,13.509-6.03,24.461-13.468,24.461s-13.469-10.952-13.469-24.461,6.444-36.15,13.883-36.15S788.622,646.776,788.622,660.285Z" transform="translate(-38.413 -9.513)"/><path class="w" d="M784.808,664.14a.787.787,0,0,0-1.03,0l-6.861,6.238V659l5.031-6.827a.413.413,0,0,0-.135-.608.518.518,0,0,0-.673.123l-4.224,5.731v-6.267a1.1,1.1,0,0,0-2.183,0v13.862l-6.05-5.3a.784.784,0,0,0-1.029.014.613.613,0,0,0,.016.93l7.063,6.185V702.6a1.1,1.1,0,0,0,2.183,0V672.245l7.893-7.176A.614.614,0,0,0,784.808,664.14Z" transform="translate(-39.083 -12.538)"/><path class="v" d="M819.1,660.285c0,13.509-6.031,24.461-13.469,24.461s-13.468-10.952-13.468-24.461,6.443-36.15,13.882-36.15S819.1,646.776,819.1,660.285Z" transform="translate(-41.955 -9.513)"/><path class="w" d="M815.286,664.14a.786.786,0,0,0-1.03,0l-6.86,6.238V659l5.032-6.827a.414.414,0,0,0-.134-.608.519.519,0,0,0-.673.123l-4.224,5.731v-6.267a1.1,1.1,0,0,0-2.183,0v13.862l-6.051-5.3a.785.785,0,0,0-1.029.014.614.614,0,0,0,.017.93l7.063,6.185v35.547a1.1,1.1,0,0,0,2.183,0V672.245l7.892-7.176A.613.613,0,0,0,815.286,664.14Z" transform="translate(-42.625 -12.538)"/><rect class="x" width="347.105" height="2.943" transform="translate(431.075 689.574)"/></g></svg>