<svg xmlns="http://www.w3.org/2000/svg" width="28.942" height="32.057" viewBox="0 0 28.942 32.057"><defs><style>.a{fill:#ff2f2f;}</style></defs><g transform="translate(2.794)"><path class="a" d="M99.5,3H96.844V2.909a3.126,3.126,0,0,0-6.238,0V3H87.95a5.817,5.817,0,0,0-5.9,4.908H105.4A5.817,5.817,0,0,0,99.5,3Z" transform="translate(-82.048)"/></g><g transform="translate(3.258 26.876)"><path class="a" d="M92.988,429.548l-.395-.291-.395.291a3.62,3.62,0,0,0-1.424,2.749,1.843,1.843,0,1,0,3.637,0A3.62,3.62,0,0,0,92.988,429.548Z" transform="translate(-90.775 -429.257)"/></g><g transform="translate(9.778 26.876)"><path class="a" d="M180.352,429.548l-.395-.291-.395.291a3.62,3.62,0,0,0-1.424,2.749,1.843,1.843,0,1,0,3.637,0A3.62,3.62,0,0,0,180.352,429.548Z" transform="translate(-178.139 -429.257)"/></g><g transform="translate(15.527 26.876)"><path class="a" d="M267.717,429.548l-.395-.291-.395.291A3.621,3.621,0,0,0,265.5,432.3a1.843,1.843,0,1,0,3.637,0A3.62,3.62,0,0,0,267.717,429.548Z" transform="translate(-265.504 -429.257)"/></g><g transform="translate(22.047 26.876)"><path class="a" d="M355.08,429.548l-.395-.291-.395.291a3.62,3.62,0,0,0-1.424,2.749,1.843,1.843,0,1,0,3.637,0A3.62,3.62,0,0,0,355.08,429.548Z" transform="translate(-352.867 -429.257)"/></g><g transform="translate(0 9.823)"><path class="a" d="M56.063,156.9H31.955a2.369,2.369,0,1,0,0,4.736h.9v7.641a3.979,3.979,0,0,0,4.014,3.933H51.148a3.979,3.979,0,0,0,4.014-3.933v-7.641h.9a2.369,2.369,0,1,0,0-4.736Z" transform="translate(-29.538 -156.896)"/></g></svg>