<svg xmlns="http://www.w3.org/2000/svg" width="15.983" height="20.425" viewBox="0 0 15.983 20.425"><defs><style>.a{fill-rule:evenodd;}</style></defs><path class="a" d="M69.842,68.8a.4.4,0,0,0,.5-.254,4.618,4.618,0,0,1,9,1.45,6.332,6.332,0,0,1-1.589,4.088,3.5,3.5,0,0,0-.96,2q0,.071,0,.141H75.129v-.916a.4.4,0,0,0-.8,0v.916H72.664q0-.07,0-.141a3.505,3.505,0,0,0-.96-2A7.3,7.3,0,0,1,70.3,71.484a.4.4,0,1,0-.772.2,8.065,8.065,0,0,0,1.539,2.882,2.993,2.993,0,0,1,.8,1.522c0,.191.008.377.024.555v3.374c0,.011,0,.021,0,.032s0,.005,0,.008a.4.4,0,0,0,.007.043h0a2.99,2.99,0,0,0,1,1.664,2.849,2.849,0,0,0,3.668,0,2.989,2.989,0,0,0,1-1.664h0a.432.432,0,0,0,.007-.043s0-.005,0-.008,0-.021,0-.032V76.644c.016-.178.024-.364.024-.555a2.993,2.993,0,0,1,.8-1.522A7.1,7.1,0,0,0,80.145,70a5.416,5.416,0,0,0-10.557-1.7A.4.4,0,0,0,69.842,68.8ZM74.73,81.637a2.112,2.112,0,0,1-1.889-1.219h3.778A2.113,2.113,0,0,1,74.73,81.637Zm2.044-2.017H72.686v-.9h4.088Zm0-1.695H72.686v-.9h4.088Zm0,0" transform="translate(-66.739 -62.009)"/><path class="a" d="M190.723,1.861a.4.4,0,0,0,.4-.4V.4a.4.4,0,0,0-.8,0V1.462A.4.4,0,0,0,190.723,1.861Zm0,0" transform="translate(-182.732)"/><path class="a" d="M.4,191.122H1.462a.4.4,0,0,0,0-.8H.4a.4.4,0,0,0,0,.8Zm0,0" transform="translate(0 -182.732)"/><path class="a" d="M158.192,210.926a.4.4,0,0,0-.4-.4h-2.855a.4.4,0,0,0,0,.8h1.029v.916a.4.4,0,1,0,.8,0v-.916h1.029A.4.4,0,0,0,158.192,210.926Zm0,0" transform="translate(-148.374 -202.129)"/><path class="a" d="M56.614,57.179a.4.4,0,1,0,.564-.564l-.752-.752a.4.4,0,0,0-.564.564Zm0,0" transform="translate(-53.521 -53.522)"/><path class="a" d="M49.246,314.51a.4.4,0,0,0,.282-.117l.752-.752a.4.4,0,0,0-.564-.564l-.752.752a.4.4,0,0,0,.282.681Zm0,0" transform="translate(-46.898 -300.476)"/><path class="a" d="M306.461,57.293a.4.4,0,0,0,.282-.117l.752-.752a.4.4,0,1,0-.564-.564l-.752.752a.4.4,0,0,0,.282.681Zm0,0" transform="translate(-293.852 -53.52)"/><path class="a" d="M313.078,313.078a.4.4,0,0,0,0,.564l.752.752a.4.4,0,0,0,.564-.564l-.752-.752A.4.4,0,0,0,313.078,313.078Zm0,0" transform="translate(-300.476 -300.476)"/><path class="a" d="M354.4,191.122h1.063a.4.4,0,0,0,0-.8H354.4a.4.4,0,0,0,0,.8Zm0,0" transform="translate(-339.882 -182.732)"/><path class="a" d="M190.723,283.5a.4.4,0,1,0,.4.4A.4.4,0,0,0,190.723,283.5Zm0,0" transform="translate(-182.732 -272.19)"/><path class="a" d="M65.384,190.723a.4.4,0,1,0-.4.4A.4.4,0,0,0,65.384,190.723Zm0,0" transform="translate(-62.009 -182.732)"/></svg>