<svg xmlns="http://www.w3.org/2000/svg" width="20.14" height="31.874" viewBox="0 0 20.14 31.874"><defs><style>.a{fill:#3e59b5;}</style></defs><path class="a" d="M73.7,16.227V13.245a2.086,2.086,0,0,0-1.161-1.951V.709a.61.61,0,1,0-1.2,0V11.294a2.086,2.086,0,0,0-1.161,1.951v2.982c-4.532.944-8.029,5.461-8.307,10.98h20.14C81.731,21.688,78.234,17.172,73.7,16.227Z" transform="translate(-61.868)"/><path class="a" d="M156.945,436.557a5.8,5.8,0,0,0,5.014-3.249H151.931A5.8,5.8,0,0,0,156.945,436.557Z" transform="translate(-146.875 -404.683)"/></svg>