<svg xmlns="http://www.w3.org/2000/svg" width="36.198" height="31.933" viewBox="0 0 36.198 31.933"><defs><style>.a{fill:#ffcf00;}</style></defs><path class="a" d="M5.984,154.967H10.9a25.172,25.172,0,0,0-5.44-6.956,3.01,3.01,0,0,0-2.02-.8,3.537,3.537,0,0,0-2.253.891c-2.25,1.844-.716,4.123-.192,4.778a16.292,16.292,0,0,1,2.056,3.534A3.69,3.69,0,0,1,5.984,154.967Z" transform="translate(0.001 -138.154)"/><path class="a" d="M342.441,148.1a3.537,3.537,0,0,0-2.253-.891,3.011,3.011,0,0,0-2.02.8,25.169,25.169,0,0,0-5.44,6.956h4.918a3.69,3.69,0,0,1,2.931,1.448,16.3,16.3,0,0,1,2.056-3.533C343.157,152.228,344.692,149.949,342.441,148.1Z" transform="translate(-307.434 -138.154)"/><path class="a" d="M78.707,276.275v-4.89a2.177,2.177,0,0,0-2.175-2.175H52.306a2.177,2.177,0,0,0-2.175,2.175v4.89a2.177,2.177,0,0,0,2.175,2.175H76.533A2.177,2.177,0,0,0,78.707,276.275Z" transform="translate(-46.32 -250.877)"/><path class="a" d="M361.5,410.751l.359,2.84h1.83l.359-2.84Z" transform="translate(-334.021 -381.658)"/><path class="a" d="M81.156,410.751l.359,2.84h1.83l.359-2.84Z" transform="translate(-74.986 -381.658)"/><path class="a" d="M83.679,44.865a25.891,25.891,0,0,1,6.1-8.072,4.524,4.524,0,0,1,1.553-.942c-2.046-4.558-7.171-7.8-13.155-7.8s-11.109,3.24-13.156,7.8a4.525,4.525,0,0,1,1.554.942,25.888,25.888,0,0,1,6.1,8.072h11Z" transform="translate(-60.083 -28.053)"/></svg>