<svg id="Component_2_1" data-name="Component 2 – 1" xmlns="http://www.w3.org/2000/svg" width="38.778" height="76.943" viewBox="0 0 38.778 76.943">
  <g id="Group_117" data-name="Group 117">
    <g id="Group_79" data-name="Group 79" transform="translate(30.378 36.533)">
      <path id="Path_109" data-name="Path 109" d="M316.954,215.07l.579-.517v0c-.061-.041-1.342-1.034-1.449-1.106a1.767,1.767,0,0,0-1.413-.189l-.271.1-1.322-.339c-.527,1.079-1.053,2.169-1.634,3.213.586.316,1.267.654,1.33.72l-.033.308,1.26,1.311a.4.4,0,0,0,.1-.266l.041.118a.552.552,0,0,0,.276.3.519.519,0,0,0,.41.015l.22-.077a.578.578,0,0,0,.379-.558l.113.3a.546.546,0,0,0,.056.108,8.168,8.168,0,0,0,1.1-.794s.01-.005.015-.016c.358-.292.7-.614,1.055-.963.128-.123.256-.256.389-.389Z" transform="translate(-311.381 -213.01)" fill="#e6b07c"/>
      <g id="Group_77" data-name="Group 77" transform="translate(0 2.228)">
        <path id="Path_110" data-name="Path 110" d="M312.156,224.782a.9.9,0,0,0,.9-.9,2.423,2.423,0,0,1,4.3-1.457,3.387,3.387,0,0,1,.493,2.219q.005,2.635,0,5.272v27.847h1.8V229.916q0-2.638,0-5.277a5.117,5.117,0,0,0-.864-3.31,4.223,4.223,0,0,0-7.533,2.552A.9.9,0,0,0,312.156,224.782Z" transform="translate(-311.255 -219.717)" fill="#7b6a58"/>
      </g>
      <g id="Group_78" data-name="Group 78" transform="translate(1.302 2.726)">
        <path id="Path_111" data-name="Path 111" d="M325.949,222.079a.614.614,0,0,1,.367-.787l.106-.039a.614.614,0,0,1,.787.367l.425,1.167a.573.573,0,0,1-.342.734l-.218.079a.535.535,0,0,1-.686-.32Z" transform="translate(-322.345 -221.217)" fill="#f5c08c"/>
        <path id="Path_112" data-name="Path 112" d="M323.782,224.392a.574.574,0,0,1-.328.3l-.215.077a.538.538,0,0,1-.63-.2.544.544,0,0,1-.056-.108l-.113-.3-.456-1.2a.6.6,0,0,1,.016-.471.6.6,0,0,1,.348-.323l.1-.041a.615.615,0,0,1,.784.358l.061.169.01.02.415,1.086.072.19a.123.123,0,0,1,.01.041A.536.536,0,0,1,323.782,224.392Z" transform="translate(-319.695 -221.801)" fill="#f5c08c"/>
        <path id="Path_113" data-name="Path 113" d="M319.909,224.806a.578.578,0,0,1-.379.558l-.22.077a.519.519,0,0,1-.41-.015.552.552,0,0,1-.276-.3l-.041-.118-.394-1.086a.371.371,0,0,1-.021-.082.611.611,0,0,1,.384-.707l.108-.036a.61.61,0,0,1,.753.292.531.531,0,0,1,.036.077l.425,1.162A.689.689,0,0,1,319.909,224.806Z" transform="translate(-317.163 -222.445)" fill="#f5c08c"/>
        <path id="Path_114" data-name="Path 114" d="M316.593,226.2a.4.4,0,0,1-.1.266.449.449,0,0,1-.215.153l-.179.066a.429.429,0,0,1-.558-.236l-.338-.921a.453.453,0,0,1,.031-.374.535.535,0,0,1,.287-.24l.087-.036a.5.5,0,0,1,.574.153.529.529,0,0,1,.066.118l.323.9A.41.41,0,0,1,316.593,226.2Z" transform="translate(-315.173 -223.642)" fill="#f5c08c"/>
      </g>
      <path id="Path_115" data-name="Path 115" d="M319.21,215.859l-.039-1.019a.433.433,0,0,0-.123-.287h0c-.06-.045-1.34-1.038-1.448-1.107a1.767,1.767,0,0,0-1.411-.191l-.272.1-1.323-.337c-.291.595-.581,1.194-.88,1.786l.9.275c1.163,1.536,2.933.166,2.933.166l.172.129a.35.35,0,0,1,.138.265l.014.535a.827.827,0,0,0,.869.79l.129-.007a.393.393,0,0,0,.372-.409Z" transform="translate(-312.896 -213.011)" fill="#ffcf9f"/>
    </g>
    <path id="Path_116" data-name="Path 116" d="M276.956,178.267l-.052.018a2.734,2.734,0,0,1-3.479-1.688l-3.335-9.616a2.734,2.734,0,0,1,1.688-3.479l.052-.018a2.734,2.734,0,0,1,3.479,1.687l3.335,9.616A2.734,2.734,0,0,1,276.956,178.267Z" transform="translate(-253.285 -143.303)" fill="#f9b233"/>
    <path id="Path_117" data-name="Path 117" d="M292.706,199.419l-8.281-5.711a2.735,2.735,0,0,0-3.755.924l-.029.048a2.734,2.734,0,0,0,.925,3.754l8.709,5.267C290.392,203.772,292.579,199.689,292.706,199.419Z" transform="translate(-260.169 -163.323)" fill="#f9b233"/>
    <g id="Group_81" data-name="Group 81" transform="translate(16.553 72.266)">
      <path id="Path_118" data-name="Path 118" d="M272.056,331.6a4.848,4.848,0,0,1-2.419-.25v-.558l2.552-.317Z" transform="translate(-269.637 -327.187)" fill="#30302f"/>
      <g id="Group_80" data-name="Group 80">
        <path id="Path_119" data-name="Path 119" d="M269.637,329.674c4.533,1.2,7.9,1.349,9.78.656l.059-.71-9.766-.819Z" transform="translate(-269.637 -326.069)" fill="#30302f"/>
        <path id="Path_120" data-name="Path 120" d="M269.793,323.577c1.431.88,8.983,1.4,9.787.55,0-1.606-3.3-.819-5.464-2.681C271.11,318.861,269.857,322.792,269.793,323.577Z" transform="translate(-269.741 -320.577)" fill="#57443a"/>
      </g>
    </g>
    <path id="Path_121" data-name="Path 121" d="M271.348,255.643l-.064.008a3.182,3.182,0,0,1-3.539-2.78l-1.64-13.669,6.383-.766,1.64,13.669A3.183,3.183,0,0,1,271.348,255.643Z" transform="translate(-250.725 -193.456)" fill="#30302f"/>
    <path id="Path_122" data-name="Path 122" d="M272.133,272.585l.064.005a3.182,3.182,0,0,1,2.909,3.435l-1.137,13.72-6.407,1.689,1.137-15.94A3.182,3.182,0,0,1,272.133,272.585Z" transform="translate(-251.698 -216.254)" fill="#30302f"/>
    <path id="Path_123" data-name="Path 123" d="M255.256,171.4H236.768l-.717-18.676c.559-4.231,4.69-9.234,9.591-9.234h.173c3.791,0,6.831,3.447,6.677,7.589C252.223,158.323,255.732,163.057,255.256,171.4Z" transform="translate(-230.655 -130.053)" fill="#00a19a"/>
    <g id="Group_83" data-name="Group 83" transform="translate(8.62 72.266)">
      <path id="Path_124" data-name="Path 124" d="M248.173,331.6a4.847,4.847,0,0,1-2.418-.25v-.558l2.551-.317Z" transform="translate(-245.755 -327.187)" fill="#3c3c3b"/>
      <g id="Group_82" data-name="Group 82">
        <path id="Path_125" data-name="Path 125" d="M245.755,329.674c4.533,1.2,7.9,1.349,9.779.656l.06-.71-9.766-.819Z" transform="translate(-245.755 -326.069)" fill="#3c3c3b"/>
        <path id="Path_126" data-name="Path 126" d="M245.91,323.577c1.431.88,8.983,1.4,9.787.55,0-1.606-3.3-.819-5.464-2.681C247.227,318.861,245.974,322.792,245.91,323.577Z" transform="translate(-245.859 -320.577)" fill="#634e42"/>
      </g>
    </g>
    <path id="Path_127" data-name="Path 127" d="M250.317,231.616h-7.724a4.6,4.6,0,0,1-4.383-4.793v-5.742c4.4,2.087,14.125,2.136,18.488,0v3.556C256.7,228.492,253.841,231.616,250.317,231.616Z" transform="translate(-232.097 -181.868)" fill="#3c3c3b"/>
    <path id="Path_128" data-name="Path 128" d="M247.465,255.643l-.064.008a3.183,3.183,0,0,1-3.539-2.78l-1.64-13.669,6.383-.766,1.64,13.669A3.182,3.182,0,0,1,247.465,255.643Z" transform="translate(-234.776 -193.456)" fill="#3c3c3b"/>
    <path id="Path_129" data-name="Path 129" d="M248.25,272.585l.064.005a3.182,3.182,0,0,1,2.909,3.435l-1.137,13.72-6.407,1.689,1.137-15.94A3.183,3.183,0,0,1,248.25,272.585Z" transform="translate(-235.748 -216.254)" fill="#3c3c3b"/>
    <path id="Path_130" data-name="Path 130" d="M271.933,167.6l-4.241-6.657,4.553-.64Z" transform="translate(-251.785 -141.282)" fill="#f9b233"/>
    <path id="Path_131" data-name="Path 131" d="M263.035,151.9l-4.62-1.409-2.666,3.585c-4.546-2.769-6.607-6.937-4.926-9.486l6.988-.9A14.434,14.434,0,0,1,263.035,151.9Z" transform="translate(-240.131 -130.187)" fill="#d4972b"/>
    <g id="Group_91" data-name="Group 91" transform="translate(7.358)">
      <g id="Group_84" data-name="Group 84" transform="translate(15.816 7.624)">
        <path id="Path_132" data-name="Path 132" d="M292.279,126.1c-.021-.011-.042-.017-.062-.026a1.335,1.335,0,0,0-1.443.363l-.429,5.309a1.163,1.163,0,0,0,.145.09c.9.459,2.024-.452,2.517-2.037S293.175,126.561,292.279,126.1Z" transform="translate(-290.087 -125.987)" fill="#f3bf8d"/>
        <path id="Path_133" data-name="Path 133" d="M292.714,133.671a4.034,4.034,0,0,1-.142.493,2.7,2.7,0,0,1-2.689,2.037l-.313.551c.047.033.353.193.4.219.9.459,2.024-.453,2.517-2.037A5.059,5.059,0,0,0,292.714,133.671Z" transform="translate(-289.569 -131.118)" fill="#e6b181"/>
        <path id="Path_134" data-name="Path 134" d="M293.263,129.457a.714.714,0,0,0-.85-.317.924.924,0,0,0-.453.415,1.927,1.927,0,0,0-.222.669,3.483,3.483,0,0,0-.028.684c.006.211.026.411.034.59s.008.346.01.5a2.116,2.116,0,0,1-.062.408c-.121.506-.4.623-.376.692,0,.015.022.022.058.019a.3.3,0,0,0,.151-.052,1.018,1.018,0,0,0,.4-.535,2.113,2.113,0,0,0,.123-.491c.01-.146.022-.3.022-.463l.028.013a.537.537,0,0,1,.223.2.823.823,0,0,1,.087.33c.01.106,0,.2.041.242s.126.006.2-.154a.815.815,0,0,0-.045-.7.444.444,0,0,0-.506-.241.245.245,0,0,0-.028.014,5.587,5.587,0,0,1,.019-.974.978.978,0,0,1,.425-.771.486.486,0,0,1,.572.137,1.039,1.039,0,0,1,.21.5c.022.143.017.234.045.243s.072-.07.093-.247A1.163,1.163,0,0,0,293.263,129.457Z" transform="translate(-290.735 -128.064)" fill="#cf9f74"/>
      </g>
      <path id="Path_135" data-name="Path 135" d="M292.655,118.194a10.52,10.52,0,0,0,.781-1.774,8.763,8.763,0,0,0,.018-2.118c-.461-2.662-1.75-3-2.317-2.913.149.522,1.174,1.406.907,1.842a1.306,1.306,0,0,1-.663.559.68.68,0,0,0-.315.782,19.542,19.542,0,0,1,.167,6.822c.294.325.784.122,1.008-.287a3.1,3.1,0,0,0,.252-1.44A4.274,4.274,0,0,1,292.655,118.194Z" transform="translate(-274.74 -108.606)" fill="#ededed"/>
      <path id="Path_136" data-name="Path 136" d="M263.283,114.909a7.494,7.494,0,0,1,.369-2.241,9.245,9.245,0,0,0,.438-2.753c0-4.431-3.525-6.88-7.873-6.88s-7.874,2.449-7.874,6.88a9.626,9.626,0,0,0,.812,3.761c-.012.1-.026.2-.034.3a13.465,13.465,0,0,0,2.116,7.32c1.247,1.685,1.971.849,3.795,1.937,1.285.767,3.666.7,4.588-.256s1.707-.815,2.306-1.807A12.072,12.072,0,0,0,263.283,114.909Z" transform="translate(-246.222 -103.035)" fill="#ffc994"/>
      <g id="Group_85" data-name="Group 85" transform="translate(13.879 9.565)">
        <path id="Path_137" data-name="Path 137" d="M283.736,132.7a1.008,1.008,0,1,0,1-.871A.941.941,0,0,0,283.736,132.7Z" transform="translate(-283.736 -131.828)" fill="#936037"/>
        <path id="Path_138" data-name="Path 138" d="M285.125,133.425a.538.538,0,1,0,.537-.509A.524.524,0,0,0,285.125,133.425Z" transform="translate(-284.664 -132.555)" fill="#3c3c3b"/>
        <path id="Path_139" data-name="Path 139" d="M287.62,135.035a.188.188,0,0,0,.188.188h0a.188.188,0,0,0,.188-.188h0a.188.188,0,0,0-.188-.188h0a.188.188,0,0,0-.188.188Z" transform="translate(-286.33 -133.844)" fill="#fff"/>
        <path id="Path_140" data-name="Path 140" d="M284.581,132.545a.266.266,0,0,0,.266.266h0a.266.266,0,0,0,.265-.266h0a.266.266,0,0,0-.265-.265h0a.266.266,0,0,0-.266.265Z" transform="translate(-284.3 -132.13)" fill="#fff"/>
      </g>
      <g id="Group_86" data-name="Group 86" transform="translate(8.04 9.565)">
        <path id="Path_141" data-name="Path 141" d="M266.161,132.7a1.008,1.008,0,1,0,1-.871A.941.941,0,0,0,266.161,132.7Z" transform="translate(-266.161 -131.828)" fill="#936037"/>
        <path id="Path_142" data-name="Path 142" d="M267.551,133.425a.538.538,0,1,0,.537-.509A.523.523,0,0,0,267.551,133.425Z" transform="translate(-267.089 -132.555)" fill="#3c3c3b"/>
        <path id="Path_143" data-name="Path 143" d="M270.046,135.035a.188.188,0,0,0,.188.188h0a.188.188,0,0,0,.188-.188h0a.188.188,0,0,0-.188-.188h0a.188.188,0,0,0-.188.188Z" transform="translate(-268.755 -133.844)" fill="#fff"/>
        <path id="Path_144" data-name="Path 144" d="M266.82,132.523a.277.277,0,0,0,.277.277h0a.277.277,0,0,0,.276-.277h0a.276.276,0,0,0-.276-.276h0a.276.276,0,0,0-.277.276Z" transform="translate(-266.601 -132.108)" fill="#fff"/>
      </g>
      <path id="Path_145" data-name="Path 145" d="M265.4,129.877a5.682,5.682,0,0,0-4.238.774c-.572.306-.788-.279-.4-.532a7.96,7.96,0,0,1,2.212-1.152c.9-.317,2.243-.554,2.639-.1C265.8,129.1,265.879,129.877,265.4,129.877Z" transform="translate(-254.383 -120.118)" fill="#f6f6f6"/>
      <path id="Path_146" data-name="Path 146" d="M279.81,129.722a5.043,5.043,0,0,1,3.972.65c.531.287.75-.3.394-.535a6.889,6.889,0,0,0-2.054-1.078c-.835-.289-2.1-.487-2.484-.026C279.45,128.97,279.358,129.735,279.81,129.722Z" transform="translate(-267.017 -120.013)" fill="#f6f6f6"/>
      <g id="Group_88" data-name="Group 88" transform="translate(9.901 17.125)">
        <path id="Path_147" data-name="Path 147" d="M276.085,157.681a1.164,1.164,0,0,1-1.047.57,1.317,1.317,0,0,1-1.126-.544c.014-.12.472.113,1.062.1S276.068,157.561,276.085,157.681Z" transform="translate(-273.198 -156.63)" fill="#dba97b"/>
        <g id="Group_87" data-name="Group 87">
          <path id="Path_148" data-name="Path 148" d="M275.809,154.813a6.229,6.229,0,0,1-2.2.222c-.3.014-.593.022-.857.023l-.375,0-.3-.011c-.015.006,0-.017-.029-.043s.014.017.021.017,0-.007.006,0a.269.269,0,0,0-.038.074,1.438,1.438,0,0,1-.078.177c-.055.1-.106.141-.138.132s-.047-.07-.052-.168c0-.049-.007-.107-.008-.181a.461.461,0,0,1,.022-.146.292.292,0,0,1,.081-.11.366.366,0,0,1,.132-.061,1.684,1.684,0,0,1,.185-.031l.169-.021.375-.039c.264-.024.556-.044.862-.058A5.228,5.228,0,0,1,275.809,154.813Z" transform="translate(-271.763 -154.585)" fill="#c4986e"/>
        </g>
      </g>
      <path id="Path_149" data-name="Path 149" d="M272.05,147.065c-.058-.026-.119-.045-.178-.067a1.341,1.341,0,0,1-.886.344h-.016a1.35,1.35,0,0,1-1.041-.506,3.369,3.369,0,0,0-.972.337,2.961,2.961,0,0,0-1.575,2.425,18.4,18.4,0,0,1,6.442-.224A3.017,3.017,0,0,0,272.05,147.065Z" transform="translate(-258.936 -132.286)" fill="#f6f6f6"/>
      <path id="Path_150" data-name="Path 150" d="M275.608,135.52a2.418,2.418,0,0,1-.163,1.635,1.022,1.022,0,0,1-1.344.108,3.538,3.538,0,0,1-1.073-1.112,4.128,4.128,0,0,0,.639,1.17c1.469,1.531,2.635.251,2.565-.959a8.5,8.5,0,0,0-1.224-3.963Q275.368,133.943,275.608,135.52Z" transform="translate(-262.706 -122.644)" fill="#dba97b"/>
      <path id="Path_151" data-name="Path 151" d="M247.976,118.723a9.516,9.516,0,0,1-1.008-1.774c-.069-.59-.023-1.432-.023-2.118,0-2.474.838-2.737,1.571-2.648a1.622,1.622,0,0,0,1.107,2.135.63.63,0,0,1,.406.782,15.217,15.217,0,0,0-.215,6.822.941.941,0,0,1-1.3-.287,2.493,2.493,0,0,1-.325-1.44A3.367,3.367,0,0,0,247.976,118.723Z" transform="translate(-245.278 -109.135)" fill="#ededed"/>
      <g id="Group_89" data-name="Group 89" transform="translate(0 7.807)">
        <path id="Path_152" data-name="Path 152" d="M242.992,126.643c.023-.01.046-.016.069-.024a1.672,1.672,0,0,1,1.633.395l.6,5.338a1.287,1.287,0,0,1-.162.087c-1,.442-2.289-.5-2.879-2.1S241.991,127.085,242.992,126.643Z" transform="translate(-241.957 -126.538)" fill="#ffc994"/>
        <path id="Path_153" data-name="Path 153" d="M242,134.158a3.785,3.785,0,0,0,.171.5,3.182,3.182,0,0,0,3.073,2.1l.364.559c-.052.033-.394.186-.45.211-1,.442-2.289-.5-2.879-2.1A4.7,4.7,0,0,1,242,134.158Z" transform="translate(-241.984 -131.627)" fill="#f2bb88"/>
        <path id="Path_154" data-name="Path 154" d="M243.652,129.994a.824.824,0,0,1,.95-.3,1.064,1.064,0,0,1,.519.427,1.868,1.868,0,0,1,.265.677,3.144,3.144,0,0,1,.046.687c0,.212-.021.412-.025.591s0,.347,0,.506a1.95,1.95,0,0,0,.079.411c.147.51.459.634.438.7,0,.015-.025.021-.065.018a.378.378,0,0,1-.171-.055,1.111,1.111,0,0,1-.458-.546,2.015,2.015,0,0,1-.149-.495c-.015-.147-.031-.307-.035-.466l-.031.013a.56.56,0,0,0-.246.192.727.727,0,0,0-.091.33c-.009.106,0,.2-.041.242s-.142,0-.226-.159a.735.735,0,0,1,.036-.7.507.507,0,0,1,.564-.231c.012,0,.02.01.031.015a4.974,4.974,0,0,0-.042-.978,1.019,1.019,0,0,0-.495-.783.579.579,0,0,0-.641.125.943.943,0,0,0-.225.5c-.022.143-.014.234-.045.243s-.082-.071-.11-.249A1.035,1.035,0,0,1,243.652,129.994Z" transform="translate(-242.969 -128.614)" fill="#dba97b"/>
      </g>
      <g id="Group_90" data-name="Group 90" transform="translate(5.25 5.117)">
        <path id="Path_155" data-name="Path 155" d="M272.348,126.046a17.965,17.965,0,0,0-10.066.278,11.437,11.437,0,0,1,10.066-.278Z" transform="translate(-260.78 -122.831)" fill="#1d1d1b" opacity="0.1"/>
        <path id="Path_156" data-name="Path 156" d="M272.956,122.549a10.583,10.583,0,0,0-8.474.107,7.4,7.4,0,0,1,8.474-.107Z" transform="translate(-262.249 -120.329)" fill="#1d1d1b" opacity="0.1"/>
        <path id="Path_157" data-name="Path 157" d="M273.963,119.318a11.659,11.659,0,0,0-7.027.129A7.017,7.017,0,0,1,273.963,119.318Z" transform="translate(-263.888 -118.438)" fill="#1d1d1b" opacity="0.1"/>
        <path id="Path_158" data-name="Path 158" d="M263.023,147.838c-.954-2.182,1.511-4.093,3.031-5.258-.58.814-1.247,1.555-1.9,2.313A3.731,3.731,0,0,0,263.023,147.838Z" transform="translate(-261.132 -134.56)" fill="#1d1d1b" opacity="0.1"/>
        <path id="Path_159" data-name="Path 159" d="M285.219,147.179c-.086-.754-.77-1.284-1.219-1.837a9.681,9.681,0,0,1-1.057-1.591,9.552,9.552,0,0,1,1.407,1.317,4.172,4.172,0,0,1,.818,1.215C285.21,146.392,285.407,147.112,285.219,147.179Z" transform="translate(-274.577 -135.342)" fill="#1d1d1b" opacity="0.1"/>
        <path id="Path_160" data-name="Path 160" d="M262.913,136.781a3.785,3.785,0,0,1-4.995.636A6.71,6.71,0,0,0,262.913,136.781Z" transform="translate(-257.866 -130.688)" fill="#1d1d1b" opacity="0.1"/>
        <path id="Path_161" data-name="Path 161" d="M262.421,139.045a3.093,3.093,0,0,1-4.661.866,4.34,4.34,0,0,0,4.661-.866Z" transform="translate(-257.76 -132.2)" fill="#1d1d1b" opacity="0.1"/>
        <path id="Path_162" data-name="Path 162" d="M285.83,137.322a1.871,1.871,0,0,1-2.954-.788A3.767,3.767,0,0,0,285.83,137.322Z" transform="translate(-274.533 -130.523)" fill="#1d1d1b" opacity="0.1"/>
        <path id="Path_163" data-name="Path 163" d="M285.851,139.938c.025.113-.4.295-.463.314a1.764,1.764,0,0,1-1.183-.084,2.616,2.616,0,0,1-1.436-1.412C283.542,139.319,284.813,140.381,285.851,139.938Z" transform="translate(-274.461 -132.007)" fill="#1d1d1b" opacity="0.1"/>
      </g>
    </g>
    <g id="Group_92" data-name="Group 92" transform="translate(3.95 39.192)">
      <path id="Path_164" data-name="Path 164" d="M242.928,231.421l.012,0a.577.577,0,0,1,.706.41l1.2,4.515a.577.577,0,0,1-.41.706l-.011,0a.578.578,0,0,1-.706-.41l-1.2-4.515A.578.578,0,0,1,242.928,231.421Z" transform="translate(-238.91 -227.949)" fill="#f2bc88"/>
      <path id="Path_165" data-name="Path 165" d="M239.853,233.819l.012,0a.6.6,0,0,1,.74.4l1.2,4.515a.6.6,0,0,1-.444.715l-.012,0a.6.6,0,0,1-.74-.4l-1.2-4.515A.6.6,0,0,1,239.853,233.819Z" transform="translate(-236.835 -229.549)" fill="#f2bc88"/>
      <path id="Path_166" data-name="Path 166" d="M236.049,233.488l.012,0a.583.583,0,0,1,.717.407l1.2,4.515a.584.584,0,0,1-.421.709l-.012,0a.584.584,0,0,1-.718-.407l-1.2-4.515A.584.584,0,0,1,236.049,233.488Z" transform="translate(-234.309 -229.329)" fill="#f2bc88"/>
      <path id="Path_167" data-name="Path 167" d="M241.11,227.522l.011-.007a.608.608,0,0,1,.86.24,19.025,19.025,0,0,0,2.458,3.26.648.648,0,0,1-.013.89l-.009.009a.6.6,0,0,1-.885-.018,20.224,20.224,0,0,1-2.6-3.4A.732.732,0,0,1,241.11,227.522Z" transform="translate(-237.793 -225.292)" fill="#f2bc88"/>
      <path id="Path_168" data-name="Path 168" d="M233.421,235.633l.01,0a.513.513,0,0,1,.627.364l.776,3.015a.513.513,0,0,1-.364.628l-.01,0a.513.513,0,0,1-.627-.364l-.776-3.015A.513.513,0,0,1,233.421,235.633Z" transform="translate(-232.593 -230.763)" fill="#f2bc88"/>
      <rect id="Rectangle_75" data-name="Rectangle 75" width="2.978" height="3.089" transform="matrix(0.967, -0.256, 0.256, 0.967, 0, 0.764)" fill="#ffc994"/>
      <path id="Path_169" data-name="Path 169" d="M233.114,231.354l.01,0a.513.513,0,0,0,.364-.627l.048.181a.578.578,0,0,0,.706.41l.011,0a.577.577,0,0,0,.41-.706l.045.168a.578.578,0,0,0,.707.41l.011,0a.578.578,0,0,1,1.117-.3l.011,0a.578.578,0,0,0,.41-.706l-.3-1.145-.054-.2-.3-1.139a1.7,1.7,0,0,0-2.078-1.207l-1.1.292a1.7,1.7,0,0,0-1.207,2.078l.3,1.14.054.2.211.8A.513.513,0,0,0,233.114,231.354Z" transform="translate(-231.807 -224.627)" fill="#ffc994"/>
    </g>
    <g id="Group_93" data-name="Group 93" transform="translate(0 18.095)">
      <rect id="Rectangle_76" data-name="Rectangle 76" width="15.646" height="5.524" rx="2.762" transform="translate(0 14.011) rotate(-63.574)" fill="#f9b233"/>
      <path id="Path_170" data-name="Path 170" d="M224.694,202.991l4.659-1.673-1.9-10.41a2.734,2.734,0,0,0-3.2-2.164l-.054.011a2.734,2.734,0,0,0-2.164,3.2Z" transform="translate(-221.262 -178.334)" fill="#f9b233"/>
    </g>
  </g>
</svg>
