<svg id="Component_1_1" data-name="Component 1 – 1" xmlns="http://www.w3.org/2000/svg" width="28.99" height="76.562" viewBox="0 0 28.99 76.562">
  <g id="Group_116" data-name="Group 116">
    <g id="Group_115" data-name="Group 115" transform="translate(0 0)">
      <g id="Group_98" data-name="Group 98" transform="translate(7.762 59.015)">
        <g id="Group_97" data-name="Group 97">
          <g id="Group_96" data-name="Group 96" transform="translate(0 12.411)">
            <path id="Path_171" data-name="Path 171" d="M170.806,331.311a5.069,5.069,0,0,0,2.53-.261v-.584l-2.669-.332Z" transform="translate(-165.031 -326.424)" fill="#2d2d2c"/>
            <g id="Group_95" data-name="Group 95">
              <path id="Path_172" data-name="Path 172" d="M162.006,329.3c-4.741,1.259-6.278,1.371-8.242.645l-.062-.742,8.228-.817Z" transform="translate(-153.702 -325.255)" fill="#2d2d2c"/>
              <path id="Path_173" data-name="Path 173" d="M161.954,322.374c-1.5.921-7.409,1.42-8.25.535,0-.848,1.978-.806,4.243-2.754C161.09,317.452,161.645,319.86,161.954,322.374Z" transform="translate(-153.703 -318.966)" fill="#544238"/>
            </g>
          </g>
          <path id="Path_174" data-name="Path 174" d="M161.511,281.884l1.387,11.21.069.557.193,1.553a3.028,3.028,0,0,0,3.454-.236l.005-.005-.032-1.73-.011-.578-.2-11.049c-.927.118-1.318.209-2.239.278A11.311,11.311,0,0,1,161.511,281.884Z" transform="translate(-158.917 -281.606)" fill="#e3b080"/>
        </g>
        <path id="Path_175" data-name="Path 175" d="M169.4,315.561l.038,2.078a3.031,3.031,0,0,1-3.458.243l-.248-2A7.055,7.055,0,0,0,169.4,315.561Z" transform="translate(-161.734 -304.281)" fill="#95c11f"/>
        <path id="Path_176" data-name="Path 176" d="M165.687,315.307l.069.557a6.542,6.542,0,0,0,1.023.075,7.038,7.038,0,0,0,2.6-.493l-.011-.578A6.416,6.416,0,0,1,165.687,315.307Z" transform="translate(-161.706 -303.819)" fill="#dedede"/>
      </g>
      <g id="Group_102" data-name="Group 102" transform="translate(14.591 59.015)">
        <g id="Group_101" data-name="Group 101">
          <g id="Group_100" data-name="Group 100" transform="translate(0 12.411)">
            <path id="Path_177" data-name="Path 177" d="M191.363,331.311a5.069,5.069,0,0,0,2.53-.261v-.584l-2.669-.332Z" transform="translate(-185.588 -326.424)" fill="#3c3c3b"/>
            <g id="Group_99" data-name="Group 99">
              <path id="Path_178" data-name="Path 178" d="M182.563,329.3c-4.741,1.259-6.278,1.371-8.242.645l-.062-.742,8.228-.817Z" transform="translate(-174.259 -325.255)" fill="#3c3c3b"/>
              <path id="Path_179" data-name="Path 179" d="M182.511,322.374c-1.5.921-7.41,1.42-8.25.535,0-.848,1.978-.806,4.243-2.754C181.648,317.452,182.2,319.86,182.511,322.374Z" transform="translate(-174.26 -318.966)" fill="#634e42"/>
            </g>
          </g>
          <path id="Path_180" data-name="Path 180" d="M182.068,281.884l1.387,11.21.07.557.193,1.553a3.029,3.029,0,0,0,3.455-.236l.005-.005-.032-1.73-.011-.578-.2-11.049c-.926.118-1.317.209-2.239.278A11.311,11.311,0,0,1,182.068,281.884Z" transform="translate(-179.474 -281.606)" fill="#f2bc88"/>
        </g>
        <path id="Path_181" data-name="Path 181" d="M189.955,315.561l.038,2.078a3.031,3.031,0,0,1-3.458.243l-.248-2A7.056,7.056,0,0,0,189.955,315.561Z" transform="translate(-182.291 -304.281)" fill="#95c11f"/>
        <path id="Path_182" data-name="Path 182" d="M186.244,315.307l.07.557a6.535,6.535,0,0,0,1.023.075,7.037,7.037,0,0,0,2.6-.493l-.011-.578A6.418,6.418,0,0,1,186.244,315.307Z" transform="translate(-182.263 -303.819)" fill="#ededed"/>
      </g>
      <path id="Path_183" data-name="Path 183" d="M151.966,179.639a24.8,24.8,0,0,0,19.55-.984l-2.822-14.7c-.587-5.106-4.443-8.7-8.155-8.7h-.131c-2.871,0-3.923,1.224-5.46,3.754C153.248,161.807,154.948,171.178,151.966,179.639Z" transform="translate(-144.781 -138.212)" fill="#634e42"/>
      <g id="Group_105" data-name="Group 105" transform="translate(0 20.469)">
        <path id="Path_184" data-name="Path 184" d="M155.447,177.782l.043.012a2.2,2.2,0,0,0,2.693-1.548l2.131-7.893a2.2,2.2,0,0,0-1.548-2.693l-.043-.012a2.2,2.2,0,0,0-2.693,1.548l-2.132,7.893A2.2,2.2,0,0,0,155.447,177.782Z" transform="translate(-146.021 -165.572)" fill="#95c11f"/>
        <g id="Group_104" data-name="Group 104" transform="translate(0 8.36)">
          <g id="Group_103" data-name="Group 103" transform="translate(0 7.425)">
            <path id="Path_185" data-name="Path 185" d="M135.188,224.8l-.008,0a.473.473,0,0,0-.653.143l-1.946,3.312c-.384.6.176.986.579.357l2.171-3.154A.473.473,0,0,0,135.188,224.8Z" transform="translate(-131.749 -220.859)" fill="#ffc994"/>
            <path id="Path_186" data-name="Path 186" d="M133.3,222.716l-.008-.005a.425.425,0,0,0-.627.128l-2.1,3.187c-.519.6.08,1,.536.421l2.316-3.072A.473.473,0,0,0,133.3,222.716Z" transform="translate(-130.352 -219.458)" fill="#ffc994"/>
            <path id="Path_187" data-name="Path 187" d="M137.9,226.093l-.008,0a.472.472,0,0,0-.648.166l-1.6,3.1c-.379.7.2,1.009.571.331l1.854-2.944A.473.473,0,0,0,137.9,226.093Z" transform="translate(-133.794 -221.726)" fill="#ffc994"/>
            <path id="Path_188" data-name="Path 188" d="M141.325,227.427l-.008,0a.42.42,0,0,0-.561.2l-.962,2.336c-.36.738.15.932.487.242l1.239-2.21A.42.42,0,0,0,141.325,227.427Z" transform="translate(-136.571 -222.634)" fill="#ffc994"/>
            <path id="Path_189" data-name="Path 189" d="M135.656,215.777l.541-.843a1.326,1.326,0,0,1,.209-.25,1.177,1.177,0,0,1,1.2-.169l.923-1.424c.666.418,1.369.838,2.039,1.289l-1.04,1.422c.2.733-1.1,2.967-1.1,2.967a7.484,7.484,0,0,1-3.113-1.306l.635-1.347Z" transform="translate(-133.663 -213.091)" fill="#f2bc88"/>
            <path id="Path_190" data-name="Path 190" d="M132.212,217.924a4.085,4.085,0,0,1-1.544.946c-.5.169-.57.909.73.565a4.217,4.217,0,0,0,1.361-.5,1.375,1.375,0,0,0,1.8.063l-.23-1.944A2.11,2.11,0,0,0,132.212,217.924Z" transform="translate(-130.336 -215.686)" fill="#ffc994"/>
            <path id="Path_191" data-name="Path 191" d="M139.5,214.467l.879-1.362c.386.242.782.485,1.18.733l-1.352,2.107,0,0c-.449.793-1.356.64-2.071.259l-.058-.569.2-.838C138.755,214.613,139.1,214.295,139.5,214.467Z" transform="translate(-135.506 -213.1)" fill="#ffc994"/>
          </g>
          <path id="Path_192" data-name="Path 192" d="M143.855,201.076l-2.547-1.755,4.287-7.558a2.2,2.2,0,0,1,3.03-.685l.038.024a2.2,2.2,0,0,1,.685,3.03Z" transform="translate(-137.663 -190.739)" fill="#95c11f"/>
        </g>
      </g>
      <path id="Path_193" data-name="Path 193" d="M142.453,251.077c.086.043.171.08.257.118.338.155.675.3,1.012.444.573.241,1.152.46,1.73.664s1.162.38,1.746.541a28.71,28.71,0,0,0,4.178.841c.52.064,1.039.118,1.564.155s1.05.059,1.575.07a31.677,31.677,0,0,0,4.488-.241q.82-.1,1.655-.241c1.071-.177,2.148-.413,3.235-.7.632-.161,1.264-.343,1.9-.541.541-.166,1.082-.343,1.623-.535l-3.326-25.666-16.962-.509Z" transform="translate(-138.428 -185.109)" fill="#e94e1b"/>
      <path id="Path_194" data-name="Path 194" d="M162.772,179.835a19.921,19.921,0,0,1-6.792-1.348c-.535-.226-1.048-.484-1.558-.742,2.106-7.92.8-16.145,2.336-18.736,1.5-2.53,2.525-3.754,5.325-3.754h.128c3.62,0,7.381,3.594,7.954,8.7l2.441,13.037A18.068,18.068,0,0,1,162.772,179.835Z" transform="translate(-146.421 -138.212)" fill="#95c11f"/>
      <path id="Path_195" data-name="Path 195" d="M156.793,159.406a35.376,35.376,0,0,0-.561,7.582,39.661,39.661,0,0,1-2,14.795,22.645,22.645,0,0,1-2.264-.748c2.982-8.461,1.282-17.832,2.982-20.63a8.643,8.643,0,0,1,2.579-3.059A7.218,7.218,0,0,0,156.793,159.406Z" transform="translate(-144.781 -139.608)" fill="#634e42"/>
      <path id="Path_196" data-name="Path 196" d="M182.219,169.809c-.16-2.576-.949-9.512,1.884-11.4a10.289,10.289,0,0,1,4.645,7.651l2.822,14.7a27.512,27.512,0,0,1-9.056,2.458C183.135,178.822,182.49,174.175,182.219,169.809Z" transform="translate(-164.836 -140.321)" fill="#634e42"/>
      <g id="Group_106" data-name="Group 106" transform="translate(14.987 38.212)">
        <path id="Path_197" data-name="Path 197" d="M180.571,227.948l-.01,0a.534.534,0,0,0-.68.329l-1.206,3.993c-.369,1.147.492,1.388.845.295l1.433-3.908A.592.592,0,0,0,180.571,227.948Z" transform="translate(-177.543 -224.947)" fill="#f2bc88"/>
        <path id="Path_198" data-name="Path 198" d="M182.862,230.281l-.01,0a.551.551,0,0,0-.736.251l-1.527,4.073c-.371.893.465,1.156.794.369L183.155,231A.551.551,0,0,0,182.862,230.281Z" transform="translate(-178.819 -226.488)" fill="#f2bc88"/>
        <path id="Path_199" data-name="Path 199" d="M185.868,230.815l-.01,0a.54.54,0,0,0-.717.26l-1.775,3.955a.433.433,0,0,0,.187.642.487.487,0,0,0,.611-.3l1.978-3.84A.539.539,0,0,0,185.868,230.815Z" transform="translate(-180.692 -226.848)" fill="#f2bc88"/>
        <path id="Path_200" data-name="Path 200" d="M179.426,225.411l-.009-.008c-.237-.222-.914.109-1.132.369a13.882,13.882,0,0,1-2.435,2.306c-.25.195-.5.381-.359.669.084.176.516.354,1.028.036a12.309,12.309,0,0,0,2.917-2.46A.677.677,0,0,0,179.426,225.411Z" transform="translate(-175.451 -223.221)" fill="#f2bc88"/>
        <path id="Path_201" data-name="Path 201" d="M189.119,233.206l-.009,0a.474.474,0,0,0-.628.235l-1.288,2.557c-.109.239-.191.659.047.768a.516.516,0,0,0,.669-.34l1.315-2.449C189.334,233.735,189.357,233.314,189.119,233.206Z" transform="translate(-183.222 -228.449)" fill="#f2bc88"/>
        <rect id="Rectangle_77" data-name="Rectangle 77" width="2.856" height="2.753" transform="translate(3.599 2.598) rotate(-65.484)" fill="#ffc994"/>
        <path id="Path_202" data-name="Path 202" d="M184.141,228.084a.547.547,0,0,1-1.053-.289.528.528,0,0,1-1-.3.537.537,0,0,1-.985-.39l.408-1.053.081-.177.183-.561c.36-.789,1.561-1.568,2.351-1.208l.957.436c.789.36.861,1.848.5,2.637l-.747,1.395C184.728,228.809,183.865,228.8,184.141,228.084Z" transform="translate(-179.212 -222.341)" fill="#ffc994"/>
      </g>
      <g id="Group_107" data-name="Group 107" transform="translate(18.8 21.287)">
        <path id="Path_203" data-name="Path 203" d="M192.393,180.087l.042-.014a2.2,2.2,0,0,0,1.393-2.776l-2.575-7.759a2.2,2.2,0,0,0-2.776-1.393l-.042.014a2.2,2.2,0,0,0-1.393,2.776l2.575,7.759A2.2,2.2,0,0,0,192.393,180.087Z" transform="translate(-186.93 -168.033)" fill="#95c11f"/>
        <path id="Path_204" data-name="Path 204" d="M189.777,204.166l-2.847-1.25,2.824-9.238a2.2,2.2,0,0,1,2.792-1.36l.042.015a2.2,2.2,0,0,1,1.36,2.792Z" transform="translate(-186.93 -184.17)" fill="#95c11f"/>
      </g>
      <g id="Group_114" data-name="Group 114" transform="translate(7.627)">
        <ellipse id="Ellipse_10" data-name="Ellipse 10" cx="3.727" cy="4.367" rx="3.727" ry="4.367" transform="matrix(0.191, -0.982, 0.982, 0.191, 4.208, 7.316)" fill="#dadada"/>
        <g id="Group_108" data-name="Group 108" transform="translate(0 11.222)">
          <path id="Path_205" data-name="Path 205" d="M154.006,137.833c.014-.009.029-.014.044-.021a.834.834,0,0,1,1,.264l.211,4.215a.879.879,0,0,1-.1.074c-.634.38-1.407-.326-1.726-1.577S153.371,138.213,154.006,137.833Z" transform="translate(-153.297 -137.733)" fill="#f0bd8b"/>
          <path id="Path_206" data-name="Path 206" d="M153.3,143.917a3.465,3.465,0,0,0,.091.39c.327,1.084,1.108,1.721,1.846,1.574l.21.433c-.034.027-.25.159-.286.181-.634.38-1.407-.326-1.726-1.577A4.435,4.435,0,0,1,153.3,143.917Z" transform="translate(-153.3 -141.863)" fill="#e3af80"/>
          <path id="Path_207" data-name="Path 207" d="M154.4,140.514a.493.493,0,0,1,.6-.266.64.64,0,0,1,.31.323,1.624,1.624,0,0,1,.144.529,3.155,3.155,0,0,1,.008.543c-.008.168-.025.327-.034.47s-.011.275-.016.4a1.892,1.892,0,0,0,.037.324c.076.4.266.489.251.544,0,.012-.016.018-.041.016a.184.184,0,0,1-.1-.039.76.76,0,0,1-.268-.419,1.823,1.823,0,0,1-.078-.388c0-.116-.01-.242-.008-.368l-.02.011a.423.423,0,0,0-.159.16.74.74,0,0,0-.066.264.471.471,0,0,1-.033.193c-.023.032-.088.007-.136-.119a.733.733,0,0,1,.043-.554c.109-.2.266-.235.357-.2a.178.178,0,0,1,.019.011,4.986,4.986,0,0,0,0-.774.764.764,0,0,0-.284-.606.323.323,0,0,0-.4.119.927.927,0,0,0-.155.4c-.018.114-.016.186-.035.194s-.049-.054-.06-.194A1.053,1.053,0,0,1,154.4,140.514Z" transform="translate(-153.946 -139.392)" fill="#cc9d73"/>
        </g>
        <path id="Path_208" data-name="Path 208" d="M155.827,123.117a8.136,8.136,0,0,0,.38,2.456.4.4,0,0,0,.017.066c.27,1.1.43,3.839,1.1,4.935.584.964,2.054,1.509,2.958,2.137,1.294.9,2.737.595,4.136-.094,1.487-.732,2.329-.859,3.211-2.208a8.516,8.516,0,0,0,1.035-2.611c.055-.215.1-.43.154-.644.1-.419.182-.832.27-1.228a7.608,7.608,0,0,0,.556-2.869A7.2,7.2,0,0,0,162.6,115.7C158.707,115.7,155.827,119.058,155.827,123.117Z" transform="translate(-154.986 -111.8)" fill="#ffc994"/>
        <g id="Group_110" data-name="Group 110" transform="translate(4.997 18.125)">
          <path id="Path_209" data-name="Path 209" d="M172.711,161.623c.052.09-.422.632-1.212.607s-1.317-.616-1.257-.7c.041-.1.5.27,1.2.3S172.678,161.518,172.711,161.623Z" transform="translate(-169.607 -160.514)" fill="#dba97b"/>
          <g id="Group_109" data-name="Group 109">
            <path id="Path_210" data-name="Path 210" d="M172.4,158.534a2.834,2.834,0,0,1-2.116.631,3.948,3.948,0,0,1-.875-.094c-.132-.031-.257-.066-.374-.1s-.2-.074-.289-.112c-.017,0,0-.016-.014-.047s.008.02.015.022c.016.019.007,0,0,0a.254.254,0,0,0-.061.048.978.978,0,0,1-.139.118c-.09.058-.158.072-.188.05s-.021-.08.011-.164c.016-.043.035-.092.063-.153a.375.375,0,0,1,.077-.111.283.283,0,0,1,.116-.057.408.408,0,0,1,.143,0c.092.016.122.027.179.039s.106.024.162.035c.113.025.232.046.356.062a5.564,5.564,0,0,0,.812.057C171.429,158.792,172.359,158.43,172.4,158.534Z" transform="translate(-168.34 -158.515)" fill="#c4986e"/>
          </g>
        </g>
        <path id="Path_211" data-name="Path 211" d="M180.512,139.728c-.544-2.4-4.33-2.419-4.023-1.079C177.184,138.4,179.349,137.818,180.512,139.728Z" transform="translate(-168.773 -126.525)" fill="#f6f6f6"/>
        <path id="Path_212" data-name="Path 212" d="M158.524,139.539c.538-2.341,3.835-2.056,3.532-.75A2.527,2.527,0,0,0,158.524,139.539Z" transform="translate(-156.788 -126.55)" fill="#f6f6f6"/>
        <g id="Group_111" data-name="Group 111" transform="translate(8.538 12.82)">
          <path id="Path_213" data-name="Path 213" d="M180.771,143.283a.892.892,0,1,1-.984-.732A.867.867,0,0,1,180.771,143.283Z" transform="translate(-178.998 -142.545)" fill="#936037"/>
          <path id="Path_214" data-name="Path 214" d="M181.188,144.038a.479.479,0,1,1-.534-.433A.486.486,0,0,1,181.188,144.038Z" transform="translate(-179.823 -143.25)" fill="#3c3c3b"/>
          <path id="Path_215" data-name="Path 215" d="M180.335,145.779a.176.176,0,0,1-.145.2h0a.176.176,0,0,1-.188-.161h0a.176.176,0,0,1,.145-.2h0a.176.176,0,0,1,.188.161Z" transform="translate(-179.667 -144.596)" fill="#fff"/>
          <path id="Path_216" data-name="Path 216" d="M182.522,143.168a.207.207,0,0,1-.172.238h0a.207.207,0,0,1-.223-.191h0a.208.208,0,0,1,.172-.238h0a.207.207,0,0,1,.223.191Z" transform="translate(-181.087 -142.833)" fill="#fff"/>
        </g>
        <g id="Group_112" data-name="Group 112" transform="translate(2.971 12.745)">
          <path id="Path_217" data-name="Path 217" d="M164.014,143.058a.892.892,0,1,1-.984-.732A.867.867,0,0,1,164.014,143.058Z" transform="translate(-162.24 -142.319)" fill="#936037"/>
          <path id="Path_218" data-name="Path 218" d="M164.431,143.812a.479.479,0,1,1-.534-.433A.486.486,0,0,1,164.431,143.812Z" transform="translate(-163.066 -143.024)" fill="#3c3c3b"/>
          <path id="Path_219" data-name="Path 219" d="M163.577,145.554a.176.176,0,0,1-.145.2h0a.175.175,0,0,1-.188-.161h0a.175.175,0,0,1,.145-.2h0a.176.176,0,0,1,.188.161Z" transform="translate(-162.909 -144.371)" fill="#fff"/>
          <path id="Path_220" data-name="Path 220" d="M165.784,142.987a.188.188,0,0,1-.155.215h0a.187.187,0,0,1-.2-.172h0a.188.188,0,0,1,.155-.215h0a.187.187,0,0,1,.2.172Z" transform="translate(-164.368 -142.649)" fill="#fff"/>
        </g>
        <path id="Path_221" data-name="Path 221" d="M180.775,142.82c-.572-1.112-1.516-1.453-2.349-.713A2.658,2.658,0,0,1,180.775,142.82Z" transform="translate(-170.078 -129.17)" fill="#c4986e"/>
        <path id="Path_222" data-name="Path 222" d="M163.735,142.168c-.738-.753-1.595-.633-2.2.34A2.594,2.594,0,0,1,163.735,142.168Z" transform="translate(-158.801 -129.147)" fill="#c4986e"/>
        <path id="Path_223" data-name="Path 223" d="M169.946,141.88a1.963,1.963,0,0,0,.123,1.311.8.8,0,0,0,1.061.091,2.821,2.821,0,0,0,.852-.888,3.317,3.317,0,0,1-.509.935c-1.166,1.223-2.082.192-2.022-.778a6.894,6.894,0,0,1,.981-3.174Q170.14,140.616,169.946,141.88Z" transform="translate(-164.082 -127.61)" fill="#dba97b"/>
        <path id="Path_224" data-name="Path 224" d="M160.942,135.844a21.2,21.2,0,0,1,7.755.068A10.906,10.906,0,0,0,160.942,135.844Z" transform="translate(-158.402 -124.797)" fill="#1d1d1b" opacity="0.1"/>
        <path id="Path_225" data-name="Path 225" d="M162.387,133.327a10.04,10.04,0,0,1,7-.048A7.108,7.108,0,0,0,162.387,133.327Z" transform="translate(-159.367 -122.937)" fill="#1d1d1b" opacity="0.1"/>
        <path id="Path_226" data-name="Path 226" d="M166.528,130.33a16.326,16.326,0,0,1,4.991.03A5.851,5.851,0,0,0,166.528,130.33Z" transform="translate(-162.133 -121.204)" fill="#1d1d1b" opacity="0.1"/>
        <path id="Path_227" data-name="Path 227" d="M179.286,153.589a3.166,3.166,0,0,0-1.468-3.7A5.978,5.978,0,0,1,179.286,153.589Z" transform="translate(-169.672 -134.627)" fill="#1d1d1b" opacity="0.1"/>
        <path id="Path_228" data-name="Path 228" d="M165.777,153.751a10.466,10.466,0,0,1,1.008-3.186A3.084,3.084,0,0,0,165.777,153.751Z" transform="translate(-161.558 -135.081)" fill="#1d1d1b" opacity="0.1"/>
        <path id="Path_229" data-name="Path 229" d="M181,147.615c1.328.6,3.513.841,4.025-.945C184.113,148.03,182.418,147.778,181,147.615Z" transform="translate(-171.8 -132.48)" fill="#1d1d1b" opacity="0.1"/>
        <path id="Path_230" data-name="Path 230" d="M181.814,150.252a2.205,2.205,0,0,0,3.928-.385A2.654,2.654,0,0,1,181.814,150.252Z" transform="translate(-172.341 -134.615)" fill="#1d1d1b" opacity="0.1"/>
        <path id="Path_231" data-name="Path 231" d="M158.285,148.113a2.035,2.035,0,0,0,3.052.25A3.7,3.7,0,0,1,158.285,148.113Z" transform="translate(-156.628 -133.443)" fill="#1d1d1b" opacity="0.1"/>
        <path id="Path_232" data-name="Path 232" d="M159.043,150.852a1.1,1.1,0,0,0,1.385.736,2.457,2.457,0,0,0,1.279-1.031,6.309,6.309,0,0,1-1.03.572A1.308,1.308,0,0,1,159.043,150.852Z" transform="translate(-157.134 -135.075)" fill="#1d1d1b" opacity="0.1"/>
        <path id="Path_233" data-name="Path 233" d="M155.526,122.624c-1.072-5.522,3.256-9.475,6.907-7.938C162.907,119.112,157.57,122.46,155.526,122.624Z" transform="translate(-154.675 -110.897)" fill="#e6e6e6"/>
        <path id="Path_234" data-name="Path 234" d="M180.006,122.121l1.227.114c1.324-5.522-3.242-9.471-8.752-8.282C172.068,118.306,176.6,123.175,180.006,122.121Z" transform="translate(-166.091 -110.489)" fill="#ededed"/>
        <g id="Group_113" data-name="Group 113" transform="translate(13.439 11.252)">
          <path id="Path_235" data-name="Path 235" d="M195.588,137.908c-.018-.008-.037-.013-.055-.02a1.334,1.334,0,0,0-1.3.315l-.476,4.26a1.057,1.057,0,0,0,.13.07c.8.352,1.827-.4,2.3-1.674S196.386,138.261,195.588,137.908Z" transform="translate(-193.753 -137.824)" fill="#ffc994"/>
          <path id="Path_236" data-name="Path 236" d="M194.456,146.631c.782.248,1.746-.49,2.192-1.713a3.826,3.826,0,0,0,.226-1.013,3.742,3.742,0,0,1-.138.4,2.647,2.647,0,0,1-2.126,1.686C194.561,146.2,194.511,146.416,194.456,146.631Z" transform="translate(-194.222 -141.885)" fill="#f2bb88"/>
          <path id="Path_237" data-name="Path 237" d="M196.476,140.583a.657.657,0,0,0-.758-.239.85.85,0,0,0-.414.34,1.484,1.484,0,0,0-.211.54,2.511,2.511,0,0,0-.037.548c0,.169.016.329.02.472s0,.277,0,.4a1.551,1.551,0,0,1-.063.328c-.118.407-.366.506-.35.561,0,.012.02.017.052.014a.3.3,0,0,0,.137-.044.887.887,0,0,0,.365-.436,1.6,1.6,0,0,0,.119-.395c.012-.117.025-.245.028-.372l.025.01a.443.443,0,0,1,.2.153.58.58,0,0,1,.073.263c.007.085,0,.159.033.193s.113,0,.181-.127a.586.586,0,0,0-.029-.556.4.4,0,0,0-.45-.184c-.01,0-.016.008-.025.012a4.005,4.005,0,0,1,.034-.781.813.813,0,0,1,.395-.625.462.462,0,0,1,.512.1.751.751,0,0,1,.18.4c.017.114.011.187.036.194s.066-.057.087-.2A.827.827,0,0,0,196.476,140.583Z" transform="translate(-194.361 -139.481)" fill="#dba97b"/>
        </g>
      </g>
      <path id="Path_238" data-name="Path 238" d="M193.757,261.161l1.162,16.1.032.434.535-.048c.846-.161,1.735-.37,2.726-.621l-.059-.461c.632-.161,1.264-.343,1.9-.541l-3.621-14.22-.091-.022Z" transform="translate(-172.689 -208.938)" fill="#1d1d1b" opacity="0.1"/>
      <path id="Path_239" data-name="Path 239" d="M143.227,273.074c.338.155.675.3,1.012.444.573.241,1.152.46,1.73.664l2.33-15.94-.016.053Z" transform="translate(-138.945 -206.989)" fill="#1d1d1b" opacity="0.1"/>
      <path id="Path_240" data-name="Path 240" d="M156.738,281.054a28.71,28.71,0,0,0,4.178.841c.52.064,1.039.118,1.564.155s1.05.059,1.575.07l-.022.418a31.309,31.309,0,0,0,4.633-.177l-.123-.482-3.6-14.156-.295,1.393v.016l-.016.064-2.137,12.4-1.066-7.991-.712-5.345-1.934.937Z" transform="translate(-147.968 -213.32)" fill="#1d1d1b" opacity="0.1"/>
      <path id="Path_241" data-name="Path 241" d="M178.7,275.045a31.309,31.309,0,0,0,4.633-.177c.686-.086,1.377-.193,2.1-.337.846-.161,1.735-.37,2.726-.621l-.059-.461-1.81-14.783-.268-2.164-6.529,1.071-.182,4.049v.016l-.589,12.988Z" transform="translate(-162.633 -205.826)" fill="#e94e1b"/>
      <path id="Path_242" data-name="Path 242" d="M145.758,269.7c.343.177.691.343,1.055.5h.005a18.6,18.6,0,0,0,2.448.873,20.016,20.016,0,0,0,4.28.68l.037-.642.509-8.291.5-8.141-4.194-2.437-.407,1.548-.016.053-4.044,15.222Z" transform="translate(-140.635 -202.978)" fill="#e94e1b"/>
    </g>
  </g>
</svg>
