<svg xmlns="http://www.w3.org/2000/svg" width="35.027" height="34.671" viewBox="0 0 35.027 34.671"><defs><style>.a{fill:#fff;}</style></defs><g transform="translate(-0.001 -4.737)"><path class="a" d="M2.3,17.392A8.528,8.528,0,0,0,3.063,19.2l-.921,1.161a.953.953,0,0,0,.071,1.263L3.8,23.213a.949.949,0,0,0,1.263.071l1.154-.913a8.381,8.381,0,0,0,1.883.8l.173,1.484a.951.951,0,0,0,.943.842h2.243a.951.951,0,0,0,.943-.842l.165-1.432a8.478,8.478,0,0,0,2.018-.815l1.116.883a.953.953,0,0,0,1.263-.071l1.586-1.586a.949.949,0,0,0,.071-1.263l-.868-1.1a8.281,8.281,0,0,0,.83-1.984l1.338-.154a.95.95,0,0,0,.842-.943V13.943A.951.951,0,0,0,19.919,13L18.6,12.846a8.334,8.334,0,0,0-.8-1.961l.812-1.026A.953.953,0,0,0,18.544,8.6L16.962,7.014A.949.949,0,0,0,15.7,6.943l-1,.789a8.363,8.363,0,0,0-2.063-.864l-.15-1.289a.951.951,0,0,0-.943-.842H9.3a.951.951,0,0,0-.943.842l-.15,1.289A8.328,8.328,0,0,0,6.1,7.762L5.062,6.943A.953.953,0,0,0,3.8,7.014L2.214,8.6a.949.949,0,0,0-.071,1.263l.864,1.093a8.174,8.174,0,0,0-.782,1.98l-1.383.158A.951.951,0,0,0,0,14.037V16.28a.951.951,0,0,0,.842.943Zm8.127-6.068a3.709,3.709,0,1,1-3.709,3.709A3.714,3.714,0,0,1,10.428,11.324Z"/><path class="a" d="M492.567,290.332l-1.184-1a.936.936,0,0,0-1.247.034l-.654.612a6.759,6.759,0,0,0-1.743-.564l-.184-.9a.945.945,0,0,0-1-.752l-1.544.132a.941.941,0,0,0-.86.906l-.03.917a6.778,6.778,0,0,0-1.665.875l-.781-.519a.939.939,0,0,0-1.236.177l-1,1.191a.936.936,0,0,0,.034,1.247l.684.729a7,7,0,0,0-.5,1.668l-.977.2a.945.945,0,0,0-.752,1l.132,1.544a.941.941,0,0,0,.906.86l1.056.034a6.9,6.9,0,0,0,.748,1.428l-.59.891a.939.939,0,0,0,.177,1.236l1.184,1a.936.936,0,0,0,1.248-.034l.774-.725a6.783,6.783,0,0,0,1.589.518l.214,1.06a.945.945,0,0,0,1,.751l1.544-.132a.941.941,0,0,0,.86-.906l.034-1.037a6.946,6.946,0,0,0,1.589-.8l.853.564a.939.939,0,0,0,1.236-.177l1-1.184a.936.936,0,0,0-.034-1.248l-.688-.729a6.765,6.765,0,0,0,.541-1.676l.939-.192a.945.945,0,0,0,.751-1l-.132-1.544a.941.941,0,0,0-.906-.86l-.943-.03a6.823,6.823,0,0,0-.785-1.548l.515-.774A.934.934,0,0,0,492.567,290.332Zm-5.82,8.928a3.036,3.036,0,1,1,2.769-3.28A3.036,3.036,0,0,1,486.747,299.26Z" transform="translate(-459.962 -272.387)"/><path class="a" d="M183.15,564.209a.939.939,0,0,0-.842.924l-.011.951a.936.936,0,0,0,.819.943l.7.09a5.423,5.423,0,0,0,.5,1.214l-.451.556a.937.937,0,0,0,.056,1.247l.665.68a.938.938,0,0,0,1.247.086l.56-.432a5.489,5.489,0,0,0,1.247.545l.075.721a.939.939,0,0,0,.924.842l.951.011a.937.937,0,0,0,.943-.819l.086-.684a5.647,5.647,0,0,0,1.353-.526l.526.425a.937.937,0,0,0,1.248-.056l.68-.665a.938.938,0,0,0,.086-1.248l-.4-.522a5.452,5.452,0,0,0,.571-1.315l.624-.064a.939.939,0,0,0,.842-.924l.011-.951a.937.937,0,0,0-.819-.943l-.609-.079a5.661,5.661,0,0,0-.515-1.315l.38-.466a.937.937,0,0,0-.056-1.248l-.665-.68a.938.938,0,0,0-1.248-.086l-.455.349a5.532,5.532,0,0,0-1.368-.594l-.06-.59a.939.939,0,0,0-.924-.842l-.951-.011a.936.936,0,0,0-.943.819l-.075.586a5.681,5.681,0,0,0-1.417.579l-.47-.383a.937.937,0,0,0-1.248.056l-.684.669a.938.938,0,0,0-.086,1.247l.4.519a5.5,5.5,0,0,0-.537,1.315Zm6.136-1.075a2.473,2.473,0,1,1-2.5,2.442A2.475,2.475,0,0,1,189.286,563.134Z" transform="translate(-175.446 -533.18)"/></g></svg>