<svg xmlns="http://www.w3.org/2000/svg" width="37" height="37" viewBox="0 0 37 37">
  <g id="Group_152" data-name="Group 152" transform="translate(-28 -287)">
    <g id="Group_49" data-name="Group 49" transform="translate(28 287.202)">
      <circle id="Ellipse_2" data-name="Ellipse 2" cx="18.5" cy="18.5" r="18.5" transform="translate(0 -0.202)" fill="#ebebeb"/>
    </g>
    <g id="stove" transform="translate(37 273.19)">
      <g id="Group_145" data-name="Group 145" transform="translate(0 23.81)">
        <g id="Group_144" data-name="Group 144">
          <path id="Path_281" data-name="Path 281" d="M19.047,58.4h.333a5.381,5.381,0,0,0,5.05,5.05v.333h.633v-.333a5.381,5.381,0,0,0,5.05-5.05h.333v-.633h-.333a5.381,5.381,0,0,0-5.05-5.05V52.38H24.43v.333a5.381,5.381,0,0,0-5.05,5.05h-.333Zm.966-.633a4.749,4.749,0,0,1,4.417-4.417v1.567h.633V53.346a4.749,4.749,0,0,1,4.417,4.417H27.913V58.4H29.48a4.749,4.749,0,0,1-4.417,4.417V61.246H24.43v1.567A4.749,4.749,0,0,1,20.013,58.4H21.58v-.633H20.013Z" transform="translate(-17.78 -50.48)"/>
          <path id="Path_282" data-name="Path 282" d="M69.2,105.066a2.533,2.533,0,1,0-2.533-2.533A2.536,2.536,0,0,0,69.2,105.066Zm0-4.433a1.9,1.9,0,1,1-1.9,1.9A1.9,1.9,0,0,1,69.2,100.633Z" transform="translate(-62.234 -94.934)"/>
          <circle id="Ellipse_18" data-name="Ellipse 18" cx="0.317" cy="0.317" r="0.317" transform="translate(6.649 6.016)"/>
          <circle id="Ellipse_19" data-name="Ellipse 19" cx="0.317" cy="0.317" r="0.317" transform="translate(6.649 8.549)"/>
          <circle id="Ellipse_20" data-name="Ellipse 20" cx="0.317" cy="0.317" r="0.317" transform="translate(5.383 7.283)"/>
          <circle id="Ellipse_21" data-name="Ellipse 21" cx="0.317" cy="0.317" r="0.317" transform="translate(7.916 7.283)"/>
          <circle id="Ellipse_22" data-name="Ellipse 22" cx="0.317" cy="0.317" r="0.317" transform="translate(7.545 6.387)"/>
          <circle id="Ellipse_23" data-name="Ellipse 23" cx="0.317" cy="0.317" r="0.317" transform="translate(5.754 8.178)"/>
          <circle id="Ellipse_24" data-name="Ellipse 24" cx="0.317" cy="0.317" r="0.317" transform="translate(5.754 6.387)"/>
          <circle id="Ellipse_25" data-name="Ellipse 25" cx="0.317" cy="0.317" r="0.317" transform="translate(7.545 8.178)"/>
          <path id="Path_283" data-name="Path 283" d="M19.632,23.81H13.3v.633H1.583A1.585,1.585,0,0,0,0,26.026V36.792a1.585,1.585,0,0,0,1.583,1.583H13.3v.633h1.267v1.267h3.8V39.009h1.267V23.81ZM13.3,37.742H1.583a.951.951,0,0,1-.95-.95V26.026a.951.951,0,0,1,.95-.95H13.3Zm.633-12.032h.633v9.816h-.633Zm0,12.666h0V36.159h.633v.317a.951.951,0,0,0,.95.95v.95H13.932Zm3.8-2.217v.317a.317.317,0,0,1-.317.317h-1.9a.317.317,0,0,1-.317-.317v-.317ZM15.2,35.526V25.71h2.533v9.816Zm1.583,1.9v.95h-.633v-.95Zm.95,2.217H15.2v-.633h2.533v.633ZM19,38.375H17.415v-.95a.951.951,0,0,0,.95-.95v-.317H19Zm0-2.85h-.633V25.71H19Zm0-10.449H13.932v-.633H19Z" transform="translate(0 -23.81)"/>
        </g>
      </g>
    </g>
  </g>
</svg>
