<svg xmlns="http://www.w3.org/2000/svg" width="35.23" height="55.629" viewBox="0 0 35.23 55.629"><defs><style>.a{fill:#ccc3a8;}.b{fill:#c9b585;}.c{fill:#d64330;}.d{fill:#e35f46;}.e{fill:#f26e5c;}.f{fill:#dfdbcc;}.g,.h{fill:#f5f5f5;}.h{opacity:0.1;}</style></defs><g transform="translate(-93.875)"><path class="a" d="M129.1,14.151v40.02a1.458,1.458,0,0,1-1.458,1.458H95.333a1.458,1.458,0,0,1-1.458-1.458V1.458A1.458,1.458,0,0,1,95.333,0h32.314A1.458,1.458,0,0,1,129.1,1.458v9.7"/><path class="b" d="M96.418,54.171V1.458A1.458,1.458,0,0,1,97.876,0H95.333a1.458,1.458,0,0,0-1.458,1.458V54.171a1.458,1.458,0,0,0,1.458,1.458h2.543A1.458,1.458,0,0,1,96.418,54.171Z" transform="translate(0)"/><path class="c" d="M175.936,63.138H157.028A1.458,1.458,0,0,0,155.57,64.6v38.993a1.458,1.458,0,0,0,1.458,1.458h18.908a1.458,1.458,0,0,0,1.458-1.458V64.6A1.458,1.458,0,0,0,175.936,63.138Z" transform="translate(-54.992 -56.278)"/><path class="d" d="M173.409,104.451h3.985V125.2H155.57V104.451h14.559" transform="translate(-54.992 -93.102)"/><path class="e" d="M155.57,293.91a1.458,1.458,0,0,0,1.458,1.458h18.908a1.458,1.458,0,0,0,1.458-1.458V276.658H155.57Z" transform="translate(-54.992 -246.599)"/><g transform="translate(96.307 2.328)"><circle class="f" cx="1.215" cy="1.215" r="1.215" transform="translate(0)"/><circle class="f" cx="1.215" cy="1.215" r="1.215" transform="translate(27.885)"/><circle class="f" cx="1.215" cy="1.215" r="1.215" transform="translate(0 48.471)"/><circle class="f" cx="1.215" cy="1.215" r="1.215" transform="translate(27.885 48.471)"/></g><g transform="translate(105.61)"><path class="g" d="M248.524,158.116a.911.911,0,0,1-.911-.911v-6.85a.911.911,0,1,1,1.822,0v6.85A.911.911,0,0,1,248.524,158.116Z" transform="translate(-242.645 -133.207)"/><path class="g" d="M216.633,330.11a4.8,4.8,0,1,1,4.8-4.8A4.8,4.8,0,0,1,216.633,330.11Zm0-7.775a2.976,2.976,0,1,0,2.976,2.976A2.98,2.98,0,0,0,216.633,322.335Z" transform="translate(-210.753 -285.689)"/><path class="h" d="M223.921,0H205.089a37.157,37.157,0,0,0,20.29,49.65V1.458A1.457,1.457,0,0,0,223.921,0Z" transform="translate(-201.884)"/></g></g></svg>