<svg xmlns="http://www.w3.org/2000/svg" width="34.669" height="34.671" viewBox="0 0 34.669 34.671"><defs><style>.a{fill:#fff;}</style></defs><g transform="translate(-0.01)"><path class="a" d="M34.6,26.863q-.147-.443-1.871-1.3-.467-.271-1.329-.739t-1.564-.862q-.7-.394-1.317-.763-.1-.074-.615-.431a6.921,6.921,0,0,0-.875-.53,1.612,1.612,0,0,0-.7-.172,2.044,2.044,0,0,0-1.231.7,11.989,11.989,0,0,0-1.354,1.527,14.845,14.845,0,0,1-1.3,1.527,1.877,1.877,0,0,1-1.133.7,1.675,1.675,0,0,1-.554-.123c-.221-.082-.39-.152-.505-.209s-.311-.172-.59-.345-.435-.267-.468-.283A25.876,25.876,0,0,1,13.4,21.274a25.862,25.862,0,0,1-4.284-5.787q-.025-.049-.283-.468t-.345-.591a5.336,5.336,0,0,1-.209-.5,1.666,1.666,0,0,1-.123-.554,1.876,1.876,0,0,1,.7-1.133,14.83,14.83,0,0,1,1.527-1.3,11.984,11.984,0,0,0,1.527-1.354,2.044,2.044,0,0,0,.7-1.231,1.608,1.608,0,0,0-.172-.7,6.845,6.845,0,0,0-.529-.874q-.357-.517-.431-.616-.369-.615-.763-1.317T9.859,3.275q-.468-.861-.739-1.329Q8.259.222,7.816.074A1.379,1.379,0,0,0,7.3,0,8.112,8.112,0,0,0,5.563.246,9.751,9.751,0,0,0,3.876.763q-1.231.517-2.61,3A9.546,9.546,0,0,0,.01,8.347,9.509,9.509,0,0,0,.1,9.64,10.624,10.624,0,0,0,.4,11.056q.221.788.357,1.169t.5,1.367q.369.985.443,1.206a22.3,22.3,0,0,0,2.044,4.309,36.51,36.51,0,0,0,5.306,6.513,36.527,36.527,0,0,0,6.513,5.306,22.338,22.338,0,0,0,4.309,2.044q.222.073,1.206.443t1.367.5q.382.136,1.169.357a10.717,10.717,0,0,0,1.416.308,9.134,9.134,0,0,0,5.873-1.17q2.486-1.379,3-2.611a9.7,9.7,0,0,0,.517-1.687,8.1,8.1,0,0,0,.246-1.736A1.373,1.373,0,0,0,34.6,26.863Z" transform="translate(0)"/></g></svg>