<svg xmlns="http://www.w3.org/2000/svg" width="16.421" height="15.246" viewBox="0 0 16.421 15.246"><path d="M17.052,6.95H10.324l2.27-2.27-.387-.387L9.663,6.836,7.12,4.293l-.387.387L9,6.95H3.368A1.37,1.37,0,0,0,2,8.318v8.758a1.37,1.37,0,0,0,1.368,1.368h.1l.472.943a.274.274,0,0,0,.245.151H16.231a.274.274,0,0,0,.246-.151l.47-.943h.1a1.37,1.37,0,0,0,1.368-1.368V8.318A1.37,1.37,0,0,0,17.052,6.95Zm-.99,12.042H4.359l-.274-.547H16.336Zm1.811-1.916a.821.821,0,0,1-.821.821H3.368a.821.821,0,0,1-.821-.821V8.318A.821.821,0,0,1,3.368,7.5H17.052a.821.821,0,0,1,.821.821Z" transform="translate(-2 -4.293)"/><path d="M17.251,18.275c-.025,0-2.513-.275-5.5-.275s-5.479.274-5.5.275A.274.274,0,0,0,6,18.547v8.21a.274.274,0,0,0,.244.272c.025,0,2.513.275,5.5.275s5.479-.274,5.5-.275a.274.274,0,0,0,.244-.272v-8.21a.274.274,0,0,0-.244-.272Zm-.3,8.236c-.692.067-2.778.246-5.2.246s-4.507-.18-5.2-.246V18.794c.692-.067,2.778-.246,5.2-.246s4.507.18,5.2.246Z" transform="translate(-4.905 -14.249)"/><path d="M51.095,18a1.095,1.095,0,1,0,1.095,1.095A1.095,1.095,0,0,0,51.095,18Zm0,1.642a.545.545,0,0,1-.471-.274h.471v-.547h-.471a.547.547,0,1,1,.471.821Z" transform="translate(-36.864 -14.249)"/><path d="M51.095,28a1.095,1.095,0,1,0,1.095,1.095A1.095,1.095,0,0,0,51.095,28Zm.274,1.566v-.471h-.547v.471a.547.547,0,1,1,.547,0Z" transform="translate(-36.864 -21.512)"/><path d="M50,38h2.189v.547H50Z" transform="translate(-36.864 -28.775)"/><path d="M50,42h2.189v.547H50Z" transform="translate(-36.864 -31.681)"/><path d="M50,46h2.189v.547H50Z" transform="translate(-36.864 -34.586)"/><path d="M50,50h2.189v.547H50Z" transform="translate(-36.864 -37.491)"/><path d="M10,22.534V24.45h.547V22.744a9.8,9.8,0,0,1,2.189-.21v-.547a8.8,8.8,0,0,0-2.55.288A.274.274,0,0,0,10,22.534Z" transform="translate(-7.811 -17.141)"/><path d="M32,42.189a18.159,18.159,0,0,0,3.065-.279.274.274,0,0,0,.219-.268V40h-.547v1.415A18.588,18.588,0,0,1,32,41.642Z" transform="translate(-23.79 -30.228)"/><path d="M0,0H2.322V.547H0Z" transform="translate(5.005 8.757) rotate(-45)"/><path d="M0,0H2.709V.547H0Z" transform="translate(6.92 8.484) rotate(-45)"/><path d="M10,33h.547v.547H10Z" transform="translate(-7.811 -25.144)"/></svg>